<?xml version="1.0" encoding="UTF-8"?>
<svg width="50px" height="49px" viewBox="0 0 50 49" version="1.1" xmlns="http://www.w3.org/2000/svg" xmlns:xlink="http://www.w3.org/1999/xlink">
    <!-- Generator: sketchtool 52.6 (67491) - http://www.bohemiancoding.com/sketch -->
    <title>3A858A85-8B9F-47C3-84FF-73218CC094B9</title>
    <desc>Created with sketchtool.</desc>
    <g id="Page-1" stroke="none" stroke-width="1" fill="none" fill-rule="evenodd">
        <g id="Laraguys" transform="translate(-721.000000, -4235.000000)">
            <g id="Group-30" transform="translate(696.000000, 4235.000000)">
                <g id="activecollab-3cba879d" transform="translate(25.000000, 0.000000)">
                    <path d="M0,23.742268 C0,6.31443299 3.875,0 25,0 C46.125,0 50,6.31443299 50,23.742268 C50,38.7706186 46.125,49 25,49 C3.875,49 0,38.7706186 0,23.742268 Z" id="Path" fill="#FFFFFF"></path>
                    <path d="M28.125,2.24333725e-15 L25,2.24333725e-15 C3.875,2.24333725e-15 0,6.31443299 0,23.742268 C0,38.7706186 3.875,49 25,49 C46.125,49 50,38.7706186 50,23.742268 C50,8.20876289 46.875,1.51546392 31.25,0.25257732 C30.75,7.57731959 29.5,14.1443299 27.875,19.7010309 C27.125,22.4793814 26.25,24.878866 25.375,26.8994845 C24.875,28.1623711 24.375,28.9201031 24.125,29.4252577 C23.625,30.1829897 22.75,30.435567 22,29.9304124 L16.375,26.6469072 C15.625,26.1417526 15.375,25.257732 15.875,24.5 C16.375,23.742268 17.25,23.4896907 18,23.9948454 L22.125,26.5206186 C22.125,26.5206186 22.125,26.3943299 22.5,25.7628866 C23.375,23.8685567 24.125,21.7216495 24.875,19.0695876 C26.5,13.3865979 27.625,7.19845361 28.125,2.24333725e-15 Z" id="Path" fill="#449DF5"></path>
                    <path d="M35.5,17 C36.8157895,17 38,15.9473684 38,14.5 C38,13.0526316 36.9473684,12 35.5,12 C34.1842105,12 33,13.0526316 33,14.5 C33,15.9473684 34.1842105,17 35.5,17 Z" id="Path" fill="#FFFFFF"></path>
                    <circle id="Oval" fill="#FFFFFF" cx="14.5" cy="14.5" r="2.5"></circle>
                    <path d="M14.2628747,35.4201919 C14.3891938,35.6612345 14.6418321,35.902277 14.8944703,36.2638408 C15.3997468,36.7459259 16.0313424,37.3485322 16.7892571,37.8306172 C18.9366822,39.1563511 21.5893837,40 25,40 C28.2842971,40 31.0633178,39.1563511 33.2107429,37.8306172 C33.9686576,37.3485322 34.6002532,36.8664471 35.1055297,36.2638408 C35.484487,35.902277 35.6108062,35.6612345 35.7371253,35.4201919 C36.2424018,34.6970644 35.9897635,33.7328942 35.2318488,33.3713304 C34.4739341,32.8892454 33.5897002,33.1302879 33.0844237,33.7328942 C32.9581046,33.8534155 32.9581046,33.9739368 32.8317855,34.094458 C32.4528281,34.4560218 32.0738708,34.8175856 31.4422752,35.1791494 C29.8001266,36.1433195 27.6527015,36.8664471 25,36.8664471 C22.3472985,36.8664471 20.1998734,36.2638408 18.5577248,35.1791494 C18.0524484,34.8175856 17.673491,34.5765431 17.1682145,34.094458 C17.0418954,33.9739368 16.9155763,33.8534155 16.9155763,33.7328942 C16.4102998,33.0097666 15.5260659,32.7687241 14.7681512,33.2508092 C14.0102365,33.7328942 13.7575982,34.6970644 14.2628747,35.4201919 C14.1365556,35.4201919 14.1365556,35.4201919 14.2628747,35.4201919 Z" id="Path" fill="#FFFFFF"></path>
                </g>
            </g>
        </g>
    </g>
</svg>