<?xml version="1.0" encoding="UTF-8"?>
<svg width="46px" height="50px" viewBox="0 0 46 50" version="1.1" xmlns="http://www.w3.org/2000/svg" xmlns:xlink="http://www.w3.org/1999/xlink">
    <!-- Generator: sketchtool 52.6 (67491) - http://www.bohemiancoding.com/sketch -->
    <title>095A1D0F-E8B6-4703-B930-958A4142E79C</title>
    <desc>Created with sketchtool.</desc>
    <g id="Page-1" stroke="none" stroke-width="1" fill="none" fill-rule="evenodd">
        <g id="Laraguys" transform="translate(-934.000000, -4242.000000)">
            <g id="Group-26" transform="translate(924.000000, 4242.000000)">
                <g id="Angular" transform="translate(10.000000, 0.000000)">
                    <polygon id="Path" fill="#DD0031" points="23 0 23 0 23 0 0 8.3 3.50805585 39.075 23 50 23 50 23 50 42.4919441 39.075 46 8.3"></polygon>
                    <polygon id="Path" fill="#C3002F" points="22.6760563 0 22.6760563 5.55 22.6760563 5.525 22.6760563 30.85 22.6760563 30.85 22.6760563 50 22.6760563 50 42.4425349 39.075 46 8.3"></polygon>
                    <path d="M22.377203,5.84415584 L7.77464789,38.3116883 L13.2192432,38.3116883 L16.1548084,31.0469224 L28.549417,31.0469224 L31.4849822,38.3116883 L36.9295775,38.3116883 L22.377203,5.84415584 Z M26.6425541,26.5686421 L18.1118518,26.5686421 L22.377203,16.392994 L26.6425541,26.5686421 Z" id="Shape" fill="#FFFFFF" fill-rule="nonzero"></path>
                </g>
            </g>
        </g>
    </g>
</svg>