<?xml version="1.0" encoding="UTF-8"?>
<svg width="48px" height="48px" viewBox="0 0 48 48" version="1.1" xmlns="http://www.w3.org/2000/svg" xmlns:xlink="http://www.w3.org/1999/xlink">
    <!-- Generator: sketchtool 52.6 (67491) - http://www.bohemiancoding.com/sketch -->
    <title>168F5606-FDE1-45BE-9154-00DBD89A0DEF</title>
    <desc>Created with sketchtool.</desc>
    <g id="Symbols" stroke="none" stroke-width="1" fill="none" fill-rule="evenodd" stroke-linecap="round" stroke-linejoin="round">
        <g id="icon/aprove1" transform="translate(1.000000, 1.000000)" stroke="#FB503B" stroke-width="2">
            <g id="approve1">
                <path d="M45.9991,46 L0.0001,46 C0.0001,34.402 9.4021,25 21.0001,25 L24.9991,25 C36.5971,25 45.9991,34.402 45.9991,46 Z" id="Stroke-1"></path>
                <path d="M22.9996,7 C27.9696,7 31.9996,11.029 31.9996,16 C31.9996,20.97 27.9696,24.999 22.9996,24.999 C18.0296,24.999 13.9996,20.97 13.9996,16 C13.9996,11.029 18.0296,7 22.9996,7 Z" id="Stroke-3"></path>
                <path d="M7.0909,18.1813 L4.8179,18.1813" id="Stroke-5"></path>
                <path d="M11.7505,6.9322 L10.1435,5.3252" id="Stroke-7"></path>
                <path d="M22.9996,2.2727 L22.9996,-0.0003" id="Stroke-9"></path>
                <path d="M34.2487,6.9322 L35.8557,5.3252" id="Stroke-11"></path>
                <path d="M38.9082,18.1813 L41.1812,18.1813" id="Stroke-13"></path>
            </g>
        </g>
    </g>
</svg>