<?xml version="1.0" encoding="UTF-8"?>
<svg width="12px" height="9px" viewBox="0 0 12 9" version="1.1" xmlns="http://www.w3.org/2000/svg" xmlns:xlink="http://www.w3.org/1999/xlink">
    <!-- Generator: sketchtool 52.6 (67491) - http://www.bohemiancoding.com/sketch -->
    <title>BCCEDD4E-E174-448C-8B43-B8CB38E866B8</title>
    <desc>Created with sketchtool.</desc>
    <g id="Symbols" stroke="none" stroke-width="1" fill="none" fill-rule="evenodd">
        <g id="arrow/thin" transform="translate(0.000000, 1.000000)" fill="#FB503B" fill-rule="nonzero">
            <g id="arrow/flowArrow" transform="translate(5.500000, 3.500000) scale(-1, 1) translate(-5.500000, -3.500000) ">
                <path d="M9.21056273,2.82626556 L6.90272047,0.340172283 C6.7148485,0.137789635 6.72661174,-0.178574236 6.92899438,-0.3664462 C7.13137703,-0.554318165 7.4477409,-0.542554931 7.63561287,-0.340172283 L10.7153498,2.97743453 C10.8023945,3.06731771 10.8560115,3.18977754 10.8561331,3.32478271 C10.8562609,3.46653556 10.7973874,3.594564 10.7027002,3.68563872 L7.58192653,6.94522407 C7.39095772,7.14468716 7.07445013,7.15157313 6.87498704,6.96060431 C6.67552395,6.7696355 6.66863799,6.4531279 6.8596068,6.25366482 L9.18360996,3.82629026 L0.000450618452,3.83456646 C-0.275691644,3.83481533 -0.499750927,3.61115955 -0.499999797,3.33501729 C-0.500248667,3.05887502 -0.276592881,2.83481574 -0.000450618452,2.83456687 L9.21056273,2.82626556 Z" id="arrow"></path>
            </g>
        </g>
    </g>
</svg>