<?xml version="1.0" encoding="UTF-8"?>
<svg width="30px" height="37px" viewBox="0 0 30 37" version="1.1" xmlns="http://www.w3.org/2000/svg" xmlns:xlink="http://www.w3.org/1999/xlink">
    <!-- Generator: sketchtool 52.6 (67491) - http://www.bohemiancoding.com/sketch -->
    <title>9CD666D3-3EEB-42E6-B353-DCA118A1E840</title>
    <desc>Created with sketchtool.</desc>
    <g id="Symbols" stroke="none" stroke-width="1" fill="none" fill-rule="evenodd">
        <g id="arrow/rounded" transform="translate(1.000000, 1.000000)" fill="#FB503B" fill-rule="nonzero">
            <path d="M0.0482032214,7.54497345 C-0.216918664,7.55327784 -0.484783532,7.45672727 -0.687867293,7.25508178 C-0.777503487,7.16608041 -0.846756107,7.06431368 -0.895604519,6.95558768 C-0.908504583,6.92669742 -0.920176557,6.89712389 -0.930442823,6.86689912 C-0.930512992,6.86669183 -0.930583091,6.86648452 -0.930653121,6.86627719 C-0.964460228,6.76653159 -0.982960492,6.65970319 -0.983349431,6.54857776 L-0.999682764,1.88191109 C-1.00161575,1.32962972 -0.555470235,0.880350221 -0.00318886745,0.878417236 C0.5490925,0.876484251 0.998372001,1.32262977 1.00030499,1.87491113 L1.00869865,4.2731013 C9.44255636,-2.81934878 20.7092896,-2.81558579 28.2157361,4.63727601 C28.6076567,5.02639893 28.6099247,5.65955985 28.2208018,6.0514805 C27.8316788,6.44340114 27.1985179,6.44566914 26.8065973,6.05654622 C20.1590318,-0.543565673 10.2470037,-0.645753445 2.61997074,5.53596001 L4.67981113,5.52875057 C5.2320925,5.52681758 5.681372,5.9729631 5.68330499,6.52524447 C5.68523797,7.07752583 5.23909246,7.52680533 4.68681109,7.52873832 L0.0482032214,7.54497345 Z M23.3201889,29.4712494 C22.7679075,29.4731824 22.318628,29.0270369 22.316695,28.4747555 C22.314762,27.9224742 22.7609075,27.4731947 23.3131889,27.4712617 L27.9798556,27.4549283 C28.5321369,27.4529954 28.9814164,27.8991409 28.9833494,28.4514222 L28.9996828,33.1180889 C29.0016157,33.6703703 28.5554702,34.1196498 28.0031889,34.1215828 C27.4509075,34.1235157 27.001628,33.6773702 26.999695,33.1250889 L26.9868617,29.4584161 L23.3201889,29.4712494 Z M27.2736627,27.749795 C27.6627967,27.3578854 28.2959577,27.3556353 28.6878673,27.7447694 C29.0797769,28.1339034 29.0820269,28.7670644 28.6928929,29.158974 C20.1286314,37.7843215 7.80815892,38.3291916 -0.21573605,30.3625751 C-0.607656697,29.9734522 -0.609924697,29.3402913 -0.220801771,28.9483706 C0.168321155,28.55645 0.801482072,28.554182 1.19340272,28.9433049 C8.40652695,36.1049384 19.4632079,35.6159591 27.2736627,27.749795 Z" id="arrowRounded"></path>
        </g>
    </g>
</svg>