<svg width="11" height="17" viewBox="0 0 11 17" fill="none" xmlns="http://www.w3.org/2000/svg">
<path d="M6.72267 12.7359L9.29841 10.1999C9.69197 9.81244 10.3251 9.81737 10.7126 10.2109C11.1001 10.6045 11.0951 11.2376 10.7016 11.6251L6.43836 15.8225C6.2571 16.0071 6.00473 16.1218 5.72555 16.122C5.4342 16.1222 5.17185 15.9979 4.98891 15.7992L0.802496 11.5482C0.414975 11.1547 0.419826 10.5215 0.81333 10.134C1.20683 9.74648 1.83998 9.75133 2.2275 10.1448L4.72262 12.6785L4.7127 1.00085C4.71223 0.448565 5.15957 0.000469411 5.71185 1.37769e-07C6.26413 -0.000469139 6.71223 0.446866 6.7127 0.99915L6.72267 12.7359Z" fill="#FB503B"/>
</svg>
