<?xml version="1.0" encoding="UTF-8"?>
<svg width="17px" height="11px" viewBox="0 0 17 11" version="1.1" xmlns="http://www.w3.org/2000/svg" xmlns:xlink="http://www.w3.org/1999/xlink">
    <!-- Generator: sketchtool 52.6 (67491) - http://www.bohemiancoding.com/sketch -->
    <title>E160B638-C478-4F60-B84F-44B4FEEEC7E7</title>
    <desc>Created with sketchtool.</desc>
    <g id="Symbols" stroke="none" stroke-width="1" fill="none" fill-rule="evenodd">
        <g id="arrow/flowArrow" transform="translate(1.000000, 1.000000)" fill="#FB503B" fill-rule="nonzero">
            <path d="M11.7358906,3.27732721 L9.19991395,0.701584721 C8.81243941,0.308034313 8.81736487,-0.325111508 9.21091528,-0.71258605 C9.60446569,-1.10006059 10.2376115,-1.09513513 10.625086,-0.701584721 L14.8224922,3.56163964 C15.0071383,3.74289791 15.1217624,3.99526459 15.1219996,4.27445026 C15.1222472,4.56579835 14.9978751,4.82815161 14.7992169,5.01109093 L10.5481693,9.19750272 C10.154665,9.585024 9.52151856,9.58017373 9.13399728,9.18666935 C8.746476,8.79316496 8.75132627,8.16001856 9.14483065,7.77249728 L11.6784745,5.27737672 L0.000849737691,5.28729964 C-0.551434813,5.28776894 -0.999530342,4.84043429 -0.999999639,4.28814974 C-1.00046894,3.73586519 -0.553134288,3.28776966 -0.000849737691,3.28730036 L11.7358906,3.27732721 Z" id="arrowRight"></path>
        </g>
    </g>
</svg>