<?xml version="1.0" encoding="UTF-8"?>
<svg width="43px" height="43px" viewBox="0 0 43 43" version="1.1" xmlns="http://www.w3.org/2000/svg" xmlns:xlink="http://www.w3.org/1999/xlink">
    <!-- Generator: sketchtool 52.6 (67491) - http://www.bohemiancoding.com/sketch -->
    <title>DDB3D4DD-FE3F-4036-81ED-8A9AC4A643E2</title>
    <desc>Created with sketchtool.</desc>
    <g id="Symbols" stroke="none" stroke-width="1" fill="none" fill-rule="evenodd" stroke-linecap="round" stroke-linejoin="round">
        <g id="icon/code" transform="translate(-2.000000, -2.000000)" stroke="#FB503B" stroke-width="2">
            <g id="code" transform="translate(3.000000, 3.000000)">
                <path d="M35.3625,40.6658 L5.3055,40.6658 C2.3755,40.6658 0.0015,38.2908 0.0015,35.3618 L0.0015,5.3048 C0.0015,2.3748 2.3755,-0.0002 5.3055,-0.0002 L35.3625,-0.0002 C38.2925,-0.0002 40.6665,2.3748 40.6665,5.3048 L40.6665,35.3618 C40.6665,38.2908 38.2925,40.6658 35.3625,40.6658 Z" id="Stroke-1"></path>
                <path d="M0,8.8402 L40.667,8.8402" id="Stroke-3"></path>
                <polyline id="Stroke-5" points="13.4825 30.2308 6.3945 24.7058 13.4825 19.1798"></polyline>
                <polyline id="Stroke-7" points="26.8317 19.1801 33.9197 24.7051 26.8317 30.2311"></polyline>
                <path d="M17.9174,32.4409 L22.3964,16.9699" id="Stroke-9"></path>
            </g>
        </g>
    </g>
</svg>