<?xml version="1.0" encoding="UTF-8"?>
<svg width="37px" height="46px" viewBox="0 0 37 46" version="1.1" xmlns="http://www.w3.org/2000/svg" xmlns:xlink="http://www.w3.org/1999/xlink">
    <!-- Generator: sketchtool 52.6 (67491) - http://www.bohemiancoding.com/sketch -->
    <title>111D5B5D-785B-41DE-8CD9-710D314B0874</title>
    <desc>Created with sketchtool.</desc>
    <g id="Symbols" stroke="none" stroke-width="1" fill="none" fill-rule="evenodd" stroke-linecap="round" stroke-linejoin="round">
        <g id="icon/coffee" transform="translate(-5.000000, -1.000000)" stroke="#FB503B" stroke-width="2">
            <g id="cup" transform="translate(6.000000, 2.000000)">
                <path d="M15.1667,43.6 C7.3887,43.6 2.8337,37.6 1.0837,29.517 L-0.0003,24.1" id="Stroke-1"></path>
                <path d="M15,43.6 C22.778,43.6 27.333,37.6 29.083,29.517 L30.167,24.1" id="Stroke-3"></path>
                <path d="M17.0888,19.389 C24.5418,19.658 30.3048,21.468 30.3048,23.661 C30.3048,26.039 23.5248,27.967 15.1618,27.967 C6.7988,27.967 0.0198,26.039 0.0198,23.661 C0.0198,21.834 4.0188,20.273 9.6628,19.647" id="Stroke-5"></path>
                <path d="M26,37.6 C26,37.6 32.667,34.933 34.25,32.267 C35.833,29.6 33.75,27.183 31.667,27.683 C29.583,28.183 29.083,29.517 29.083,29.517" id="Stroke-7"></path>
                <path d="M18.0833,24.0833 C18.0833,24.0833 12.8143,22.4863 13.1663,18.1663 C13.5003,14.0833 18.1663,12.8333 18.0833,7.5003 C18.0063,2.5843 14.8333,0.0003 14.8333,0.0003" id="Stroke-9"></path>
            </g>
        </g>
    </g>
</svg>