<?xml version="1.0" encoding="UTF-8"?>
<svg width="50px" height="50px" viewBox="0 0 50 50" version="1.1" xmlns="http://www.w3.org/2000/svg" xmlns:xlink="http://www.w3.org/1999/xlink">
    <!-- Generator: sketchtool 52.6 (67491) - http://www.bohemiancoding.com/sketch -->
    <title>FFC5538C-88A8-427D-99F3-2D3F45D53899</title>
    <desc>Created with sketchtool.</desc>
    <g id="Page-1" stroke="none" stroke-width="1" fill="none" fill-rule="evenodd">
        <g id="Laraguys" transform="translate(-506.000000, -4240.000000)" fill="#000000" fill-rule="nonzero">
            <g id="Group-17" transform="translate(506.000000, 4240.000000)">
                <g id="git">
                    <path d="M18.9438776,38.4132653 C18.9438776,39.8469388 17.9336735,40.5612245 15.9183673,40.5612245 C13.5969388,40.5612245 12.4336735,39.877551 12.4336735,38.5102041 C12.4336735,37.122449 13.494898,36.4285714 15.622449,36.4285714 C17.8367347,36.4234694 18.9438776,37.0867347 18.9438776,38.4132653 Z M17.7755102,23.2397959 C17.7755102,25.0867347 16.9744898,26.005102 15.3673469,26.005102 C13.6938776,26.005102 12.8622449,25.0918367 12.8622449,23.2704082 C12.8622449,21.3163265 13.6989796,20.3418367 15.3673469,20.3418367 C16.1479592,20.3418367 16.744898,20.6173469 17.1581633,21.1734694 C17.5663265,21.7295918 17.7755102,22.4183673 17.7755102,23.2397959 Z M23.1785714,20.8010204 L23.1785714,16.7295918 C21.4846939,17.3571429 20.0204082,17.6734694 18.7857143,17.6734694 C17.6989796,17.0459184 16.505102,16.7295918 15.2040816,16.7295918 C13.3367347,16.7295918 11.7653061,17.3469388 10.4846939,18.5867347 C9.20408163,19.8214286 8.56632653,21.377551 8.56632653,23.2397959 C8.56632653,24.3265306 8.8877551,25.4336735 9.5255102,26.5612245 C10.1632653,27.6887755 10.9642857,28.4183673 11.9183673,28.7397959 L11.9183673,28.8367347 C11.0918367,29.2040816 10.6836735,30.127551 10.6836735,31.6020408 C10.6836735,32.75 11.127551,33.5867347 12.0204082,34.1071429 L12.0204082,34.2040816 C9.56632653,35.005102 8.34183673,36.5153061 8.34183673,38.7295918 C8.34183673,39.7040816 8.56122449,40.5561224 8.99489796,41.2857143 C9.42857143,42.0153061 10.0153061,42.5663265 10.755102,42.9438776 C11.494898,43.3214286 12.2755102,43.6020408 13.0969388,43.7755102 C13.9183673,43.9489796 14.8010204,44.0357143 15.7346939,44.0357143 C20.5969388,44.0357143 23.0255102,41.994898 23.0255102,37.9183673 C23.0255102,36.4642857 22.505102,35.3877551 21.4642857,34.6938776 C20.4234694,34 19.0561224,33.5 17.3622449,33.1989796 C16.7755102,33.0918367 16.2193878,32.8673469 15.6836735,32.5306122 C15.1530612,32.1938776 14.8877551,31.7653061 14.8877551,31.244898 C14.8877551,30.2908163 15.4183673,29.7244898 16.4846939,29.5510204 C18.1581633,29.2244898 19.4795918,28.4642857 20.4540816,27.2704082 C21.4285714,26.0765306 21.9183673,24.622449 21.9183673,22.9081633 C21.9183673,22.3877551 21.8112245,21.8214286 21.5918367,21.2142857 C22.3826531,21.0306122 22.9183673,20.8877551 23.1785714,20.8010204 Z M25.0969388,34.4387755 L29.5561224,34.4387755 C29.5102041,33.8520408 29.4897959,32.9642857 29.4897959,31.7704082 L29.4897959,19.1734694 C29.4897959,18.1734694 29.5102041,17.4285714 29.5561224,16.9285714 L25.0969388,16.9285714 C25.1632653,17.4285714 25.1938776,18.1989796 25.1938776,19.2397959 L25.1938776,32 C25.1938776,33.0816327 25.1632653,33.8979592 25.0969388,34.4387755 Z M41.6683673,33.9183673 L41.6683673,29.9795918 C41.0153061,30.4336735 40.2806122,30.6632653 39.4540816,30.6632653 C38.3061224,30.6632653 37.7295918,29.7755102 37.7295918,27.994898 L37.7295918,20.6683673 L39.4234694,20.6683673 C39.6173469,20.6683673 39.9081633,20.6785714 40.2857143,20.6989796 C40.6632653,20.7193878 40.9540816,20.7295918 41.1479592,20.7295918 L41.1479592,16.9234694 L37.7295918,16.9234694 C37.7295918,15.1428571 37.7602041,14.0357143 37.8265306,13.6020408 L33.2704082,13.6020408 C33.3571429,14.122449 33.4030612,14.7193878 33.4030612,15.3928571 L33.4030612,16.9234694 L31.4489796,16.9234694 L31.4489796,20.7295918 C32.2295918,20.6632653 32.6326531,20.6326531 32.6530612,20.6326531 C32.7193878,20.6326531 32.8367347,20.6887755 33.0102041,20.7959184 C33.1836735,20.9030612 33.3163265,20.9591837 33.4030612,20.9591837 L33.4030612,21.0255102 L33.3367347,21.0255102 L33.3367347,28.0867347 C33.3367347,28.8877551 33.3622449,29.5816327 33.4183673,30.1683673 C33.4744898,30.755102 33.5969388,31.3673469 33.7908163,32.005102 C33.9846939,32.6428571 34.25,33.1734694 34.5867347,33.5816327 C34.9234694,33.994898 35.3928571,34.3316327 36.005102,34.5918367 C36.6122449,34.8520408 37.3265306,34.9846939 38.1530612,34.9846939 C39.5408163,34.9846939 40.7142857,34.7244898 41.6683673,34.2040816 L41.6683673,33.9183673 Z M30.0765306,10.9387755 C30.0765306,10.1581633 29.8163265,9.46938776 29.2959184,8.87244898 C28.7755102,8.2755102 28.122449,7.97959184 27.3418367,7.97959184 C26.5612245,7.97959184 25.9030612,8.27040816 25.372449,8.85714286 C24.8418367,9.44387755 24.5765306,10.1377551 24.5765306,10.9387755 C24.5765306,11.7193878 24.8469388,12.3979592 25.3928571,12.9744898 C25.9336735,13.5510204 26.5867347,13.8367347 27.3469388,13.8367347 C28.1071429,13.8367347 28.75,13.5459184 29.2857143,12.9591837 C29.8112245,12.3673469 30.0765306,11.6989796 30.0765306,10.9387755 Z M50,9.37755102 L50,40.627551 C50,43.2091837 49.0816327,45.4183673 47.25,47.25 C45.4183673,49.0816327 43.2091837,50 40.627551,50 L9.37755102,50 C6.79591837,50 4.58673469,49.0816327 2.75510204,47.25 C0.918367347,45.4132653 0,43.2091837 0,40.627551 L0,9.37755102 C0,6.79591837 0.918367347,4.58673469 2.75,2.75510204 C4.58673469,0.918367347 6.79081633,0 9.37755102,0 L40.627551,0 C43.2091837,0 45.4183673,0.918367347 47.25,2.75 C49.0816327,4.58673469 50,6.79081633 50,9.37755102 Z" id="Shape"></path>
                </g>
            </g>
        </g>
    </g>
</svg>