<?xml version="1.0" encoding="UTF-8"?>
<svg width="62px" height="49px" viewBox="0 0 62 49" version="1.1" xmlns="http://www.w3.org/2000/svg" xmlns:xlink="http://www.w3.org/1999/xlink">
    <!-- Generator: sketchtool 52.6 (67491) - http://www.bohemiancoding.com/sketch -->
    <title>1D6BD5F6-E646-4CA3-B229-65AF282044D2</title>
    <desc>Created with sketchtool.</desc>
    <g id="Page-1" stroke="none" stroke-width="1" fill="none" fill-rule="evenodd">
        <g id="Laraguys" transform="translate(-80.000000, -4401.000000)">
            <g id="Group-22" transform="translate(80.000000, 4401.000000)">
                <g id="icZeplin">
                    <path d="M9.65266876,34 L6.18612597,35.0936766 L6,44 L18,40.2140794 C13.8841406,39.0200531 10.8784886,36.9192979 9.65266876,34" id="Path" fill="#FDBD39"></path>
                    <path d="M12,23 L0,27.3311791 L6.73150812,35 L10.1900521,33.7517057 C8.97063856,30.4294125 9.72264135,26.6738857 12,23" id="Path" fill="#F69833"></path>
                    <path d="M29.4054216,9.80867841 C14.9215798,15.0574172 5.58393019,25.8882462 8.54928202,34 L61,14.9925671 C58.0346482,6.88077662 43.8893002,4.55990304 29.4054216,9.80867841" id="Path" fill="#FECF33"></path>
                    <path d="M40.5915342,39.1805242 C55.0740343,33.9340914 64.4283391,23.1561163 61.4457254,15 L9,33.9989492 C11.9825769,42.1551021 26.109071,44.4269201 40.5915342,39.1805242" id="Path" fill="#EE6723"></path>
                    <path d="M61.7413149,15 L9,33.023405 C10.0327466,35.6874954 13.9710311,37 19.4968907,37 C24.8841636,37 31.7803592,35.7534425 38.9699255,33.2964853 C53.5340875,28.3194774 63.7808995,20.2613636 61.7413149,15" id="Path" fill="#F69833"></path>
                    <path d="M51.5031108,12 C46.1158017,12 39.2196443,13.2465903 32.0300048,15.7035088 C17.4659192,20.6805436 7.21907164,28.73861 9.25869301,34 L62,15.9766235 C60.9672536,13.3125026 57.0289696,12 51.5031108,12" id="Path" fill="#FDBD39"></path>
                    <path d="M47.9877494,45 L47.9873873,45 C46.4713645,45 44.2347556,43.6344377 41.3396283,40.9412964 C37.9145358,37.7550565 33.9910914,33.0882522 30.2918727,27.8006258 C26.5927989,22.5132167 23.5532213,17.2270399 21.7330886,12.9157885 C19.7500012,8.21759705 19.4672565,5.32884733 20.8926765,4.32971101 C21.2052237,4.11087017 21.5819752,4 22.0123932,4 C23.1718708,4 25.431076,4.86082951 29.60873,8.96204731 L29.7000934,9.05167855 L29.687745,9.17914844 C29.6591736,9.47377531 29.6328473,9.77104801 29.6093818,10.0628116 L29.562813,10.6421708 L29.1529636,10.2304036 C24.6516814,5.70828501 22.6702235,5.22007932 22.0271677,5.22007932 C21.8437893,5.22007932 21.6977456,5.25726558 21.5930562,5.33065953 C20.9747694,5.76388319 20.9349723,7.88574765 22.8575854,12.4401233 C24.6452357,16.6745375 27.6405982,21.8807602 31.2919082,27.0997044 C34.943363,32.3191561 38.8067677,36.9169881 42.1706253,40.0462526 C45.7980353,43.4205622 47.4326529,43.7849224 47.9671085,43.7849224 C48.1516457,43.7849224 48.3016003,43.7453803 48.4128079,43.6673834 C49.0650616,43.2103837 49.0658221,40.9373095 46.9217716,36.0352822 L46.8233469,35.8102437 L47.0388093,35.6926321 C47.2543079,35.5749843 47.462709,35.4591487 47.6581461,35.348351 L47.9162665,35.2020705 L48.0352598,35.4739363 C49.5555193,38.9474092 50.9765938,43.3621008 49.1131876,44.6683319 C48.7990107,44.888405 48.4204124,45 47.9877494,45 Z M47.9873873,44.4642061 L47.987772,44.4642061 L47.9875155,44.7320849 L47.9873873,44.4642061 Z" id="Shape" fill="#EE6723" fill-rule="nonzero"></path>
                    <path d="M41,38.7500323 L40.9785009,39.0166225 C40.6213575,43.448946 39.6810068,48.7776364 37.2291778,48.9933045 C37.1798522,48.9977198 37.128693,49 37.0775339,49 C35.411931,49 33.8361354,46.6064432 32.3940077,41.8857057 C31.0295357,37.419615 29.9707244,31.4231825 29.4126113,25.0010598 C28.8544624,18.5802764 28.8628391,12.4898894 29.4361597,7.85192308 C30.0610708,2.79796601 31.250782,0.158629456 32.9720379,0.0071298229 C33.0229095,0.00242486108 33.0756506,0 33.1277445,0 C34.3360427,0 36.1570644,1.37225521 38.0213,7.76397656 L36.8040499,7.99962256 C36.1816194,5.8636803 35.5032841,4.12646512 34.8298742,2.93274495 C34.2069404,1.82859993 33.6012634,1.22053843 33.1242931,1.22053843 C33.1086182,1.22053843 33.0928355,1.22118989 33.0772684,1.22252899 C32.3312003,1.28825363 31.2446703,3.10339015 30.6389213,8.0026265 C30.075811,12.5573876 30.0690161,18.5564983 30.619795,24.8948726 C31.1708975,31.2341879 32.2124161,37.1410091 33.5524051,41.5270793 C34.1525096,43.4914716 34.8107479,45.1104114 35.4559358,46.2089828 C36.0508993,47.2220326 36.6266646,47.7799682 37.0771744,47.7799682 C37.0926695,47.7799682 37.1080927,47.7792444 37.1234801,47.7779414 C37.8373355,47.7151846 39.1826094,45.8263249 39.7488115,39.1806807 L41,38.7500323" id="Path" fill="#EE6723"></path>
                </g>
            </g>
        </g>
    </g>
</svg>