<?xml version="1.0" encoding="UTF-8"?>
<svg width="48px" height="48px" viewBox="0 0 48 48" version="1.1" xmlns="http://www.w3.org/2000/svg" xmlns:xlink="http://www.w3.org/1999/xlink">
    <!-- Generator: sketchtool 52.6 (67491) - http://www.bohemiancoding.com/sketch -->
    <title>C2860E4A-67EE-46C0-B734-4E595EFA149F</title>
    <desc>Created with sketchtool.</desc>
    <g id="Symbols" stroke="none" stroke-width="1" fill="none" fill-rule="evenodd" stroke-linecap="round" stroke-linejoin="round">
        <g id="icon/idea" transform="translate(1.000000, 1.000000)" stroke="#FB503B" stroke-width="2">
            <g id="idea">
                <path d="M37.1807,9.1025 C34.8087,4.4905 30.3577,1.0655 25.0537,0.2195 C18.4317,-0.8355 12.3867,2.0025 8.8517,6.8025 L8.2377,7.6945 L-0.0003,20.5155 L5.5897,20.5155 L5.5897,27.2645 C5.5897,29.2855 6.8197,31.1035 8.6957,31.8555 L9.4717,32.1665 C11.3287,32.9105 12.5457,34.7105 12.5457,36.7105 L12.5457,45.9995 L32.0607,41.8185 L32.0607,32.9745 C32.0607,31.4175 32.6977,29.9285 33.8267,28.8555 C35.3217,27.4345 36.5487,25.7395 37.4377,23.8525" id="Stroke-1"></path>
                <path d="M38,12.9996 L33.352,12.4366 C31.403,12.2006 29.604,11.3766 27.994,10.2536 C26.528,9.2306 24.653,8.7546 22.661,9.1236 C19.904,9.6356 17.671,11.8436 17.137,14.5956 C16.266,19.0776 19.675,22.9996 24,22.9996 C25.427,22.9996 26.752,22.5716 27.858,21.8386 C29.639,20.6566 31.602,19.7746 33.725,19.5176 L38,18.9996 L38,12.9996 Z" id="Stroke-3"></path>
                <path d="M42,11.9995 L42,19.9995" id="Stroke-5"></path>
                <path d="M46,12.9996 L46,18.9996" id="Stroke-7"></path>
                <path d="M28.9999,15.9996 L45.9999,15.9996" id="Stroke-9"></path>
                <path d="M28.9999,15.9996 L26.9999,13.9996" id="Stroke-11"></path>
                <path d="M27,17.9995 L29,15.9995" id="Stroke-13"></path>
            </g>
        </g>
    </g>
</svg>