<?xml version="1.0" encoding="UTF-8"?>
<svg width="123px" height="42px" viewBox="0 0 123 42" version="1.1" xmlns="http://www.w3.org/2000/svg" xmlns:xlink="http://www.w3.org/1999/xlink">
    <!-- Generator: sketchtool 52.6 (67491) - http://www.bohemiancoding.com/sketch -->
    <title>4055C68B-042C-4132-AF84-2BB57AECE838</title>
    <desc>Created with sketchtool.</desc>
    <g id="Page-1" stroke="none" stroke-width="1" fill="none" fill-rule="evenodd">
        <g id="Laraguys" transform="translate(-718.000000, -4398.000000)">
            <g id="Group-23" transform="translate(718.000000, 4398.000000)">
                <g id="invision-logo-vector">
                    <path d="M37.2876438,0 L3.71235618,0 C1.66133067,0 0,1.72013652 0,3.80887372 L0,38.1911263 C0,40.2798635 1.68184092,42 3.71235618,42 L37.2876438,42 C39.3386693,42 41,40.2798635 41,38.1911263 L41,3.80887372 C41,1.72013652 39.3181591,0 37.2876438,0 Z" id="Fill-1" fill="#FF3366"></path>
                    <path d="M57.675356,32.6019846 L61.6350471,32.6019846 L61.6350471,14.3980154 L57.675356,14.3980154 L57.675356,32.6019846 Z M72.160029,21.8346196 C70.1288921,21.1642778 68.2618875,20.5777288 68.2618875,19.2789416 L68.2618875,19.216097 C68.2618875,18.1477398 69.1440985,17.3936053 70.7033551,17.3936053 C71.4419503,17.3936053 72.2831282,17.5821389 73.1653391,17.8963616 C73.1653391,17.8963616 73.1653391,17.8963616 73.2063722,17.8963616 C73.2679218,17.938258 73.3499879,17.9592062 73.4525706,18.0011025 C74.0885832,18.2105843 75.7504224,18.5038589 77.2070963,16.1576626 C75.3811248,14.8798236 73.0217234,14.0837927 70.8469708,14.0837927 C67.4001931,14.0837927 64.6920106,16.1786108 64.6920106,19.6350606 L64.6920106,19.6979052 C64.6920106,23.1962514 67.5232923,24.2855568 70.1083756,25.0396913 C72.1395124,25.6890849 73.9654839,26.1708931 73.9654839,27.5953693 L73.9654839,27.6582139 C73.9654839,28.8732084 72.9806903,29.6273429 71.2983345,29.6273429 C70.1904417,29.6273429 68.9389331,29.3131202 67.6874246,28.7056229 C67.318127,28.5589857 65.4921554,27.8886439 63.8918658,30.2348401 C66.0461019,32.0154355 68.7337678,32.9371555 71.1957519,32.9371555 C74.7861453,32.9371555 77.617427,31.0518192 77.617427,27.1973539 L77.617427,27.1554576 C77.5353608,23.8665932 74.6835626,22.6725469 72.160029,21.8346196 Z M46.9041757,27.7629548 L42.2674391,14.3561191 L38,14.3561191 L45.0987207,32.7067255 L48.6480811,32.7067255 L55.7057688,14.3980154 L51.5409124,14.3980154 L46.9041757,27.7629548 Z M95.9181752,14 C90.604393,14 86.685735,18.3153252 86.685735,23.5523705 C86.685735,28.7475193 90.5838764,33 95.8566256,33 C101.190924,33 105.130099,28.6846748 105.130099,23.4895259 C105.109582,18.2524807 101.190924,14 95.9181752,14 Z M95.9181752,29.3969129 C92.8406951,29.3969129 90.645426,26.7155458 90.645426,23.4895259 C90.645426,20.2844542 92.6765629,17.6449835 95.8566256,17.6449835 C98.9751388,17.6449835 101.170408,20.3263506 101.170408,23.5523705 C101.129375,26.7574421 99.098238,29.3969129 95.9181752,29.3969129 Z M116.84504,14 C114.17789,14 112.557084,15.4873208 111.428675,17.2050717 L111.428675,14.3980154 L107.468984,14.3980154 L107.468984,32.6019846 L111.428675,32.6019846 L111.428675,22.3164278 C111.428675,19.5093716 113.008448,17.7916207 115.326816,17.7916207 C117.686218,17.7916207 119.019792,19.4046307 119.019792,22.2535832 L119.019792,32.5810364 L123,32.5810364 L123,21.0385888 C123,16.786108 120.743181,14 116.84504,14 Z M80.1409607,32.6019846 L84.1006517,32.6019846 L84.1006517,14.3980154 L80.1409607,14.3980154 L80.1409607,32.6019846 Z" id="Fill-3" fill="#FF3366" fill-rule="nonzero"></path>
                    <path d="M14,12 C15.092437,12 16,11.1260504 16,10 C16,8.85714286 15.092437,8 14,8 C12.907563,8 12,8.87394958 12,10 C12,11.1260504 12.907563,12 14,12 Z" id="Fill-4" fill="#FFFFFF"></path>
                    <path d="M9.05430847,26.4310345 C8.91238233,27.0800493 8.81100652,27.75 8.81100652,28.294335 C8.81100652,30.5135468 9.98696597,31.979064 12.5213613,31.979064 C14.6097031,31.979064 16.2925416,30.7229064 17.5090514,28.7130542 L16.7588704,31.7487685 L20.9152788,31.7487685 L23.2874728,22.1391626 C23.8957277,19.7315271 25.051412,18.4334975 26.7545257,18.4334975 C28.1332368,18.4334975 28.9847936,19.2918719 28.9847936,20.7155172 C28.9847936,21.1342365 28.9442433,21.5738916 28.8225923,22.0763547 L27.6060825,26.4938424 C27.4438812,27.1428571 27.3425054,27.75 27.3425054,28.3571429 C27.3425054,30.4716749 28.5590152,32 31.1136857,32 C33.3034033,32 35.0673425,30.5763547 36,27.1637931 L34.377987,26.5147783 C33.5669804,28.796798 32.8573497,29.1945813 32.2896452,29.1945813 C31.7422158,29.1945813 31.4380883,28.817734 31.4380883,28.0640394 C31.4380883,27.729064 31.4989138,27.3522167 31.6002896,26.9125616 L32.8573497,22.6206897 C33.1614772,21.5948276 33.262853,20.7155172 33.262853,19.8990148 C33.262853,16.6748768 31.3367125,15 29.0050688,15 C26.8153512,15 24.5850833,16.9679803 23.4699493,19.0825123 L24.2809558,15.3140394 L17.9348298,15.3140394 L17.0224475,18.6219212 L19.9826213,18.6219212 L18.1578566,26.0123153 C16.6980449,29.2364532 14.0825489,29.2783251 13.7784214,29.2155172 C13.230992,29.0689655 12.9065894,28.8805419 12.9065894,28.1687192 C12.9065894,27.75 12.9674149,27.1847291 13.1701665,26.4729064 L15.9275887,15.3559113 L8.91238233,15.3559113 L8,18.6637931 L10.9398986,18.6637931 L9.05430847,26.4310345 Z" id="Fill-5" fill="#FFFFFF"></path>
                </g>
            </g>
        </g>
    </g>
</svg>