<svg width="31" height="32" viewBox="0 0 31 32" fill="none" xmlns="http://www.w3.org/2000/svg">
<path fill-rule="evenodd" clip-rule="evenodd" d="M23.2626 13.771C23.3456 16.014 22.5226 18.067 21.1336 19.593C19.4306 21.465 18.3566 23.823 18.3566 26.353V27.923C18.3566 28.949 18.0616 29.657 17.5376 30.181V30.181C17.0136 30.705 16.3026 31 15.5616 31H14.6026C13.8616 31 13.1506 30.705 12.6266 30.181V30.181C12.1016 29.657 11.8076 28.946 11.8076 28.205V26.157C11.8076 23.719 10.7606 21.451 9.0976 19.667C7.7326 18.204 6.8956 16.239 6.8956 14.082C6.8956 9.432 10.7766 5.683 15.4856 5.907C19.6776 6.103 23.1046 9.574 23.2626 13.771Z" stroke="#FB503B" stroke-width="2" stroke-linecap="round" stroke-linejoin="round"/>
<path d="M9.7493 24.4512H20.4103" stroke="#FB503B" stroke-width="2" stroke-linecap="round" stroke-linejoin="round"/>
<path d="M18.1671 13.5364L15.0801 16.6234L11.9931 13.5364" stroke="#FB503B" stroke-width="2" stroke-linecap="round" stroke-linejoin="round"/>
<path d="M15.08 16.6235L15.082 24.4515" stroke="#FB503B" stroke-width="2" stroke-linecap="round" stroke-linejoin="round"/>
<path d="M1 15.0801H2.225" stroke="#FB503B" stroke-width="2" stroke-linecap="round" stroke-linejoin="round"/>
<path d="M5.12388 5.12388L5.98988 5.98988" stroke="#FB503B" stroke-width="2" stroke-linecap="round" stroke-linejoin="round"/>
<path d="M15.08 1V2.225" stroke="#FB503B" stroke-width="2" stroke-linecap="round" stroke-linejoin="round"/>
<path d="M25.036 5.12388L24.17 5.98988" stroke="#FB503B" stroke-width="2" stroke-linecap="round" stroke-linejoin="round"/>
<path d="M29.1599 15.0801H27.9349" stroke="#FB503B" stroke-width="2" stroke-linecap="round" stroke-linejoin="round"/>
<path d="M25.036 25.036L24.17 24.17" stroke="#FB503B" stroke-width="2" stroke-linecap="round" stroke-linejoin="round"/>
<path d="M5.12388 25.036L5.98988 24.17" stroke="#FB503B" stroke-width="2" stroke-linecap="round" stroke-linejoin="round"/>
</svg>
