<?xml version="1.0" encoding="UTF-8"?>
<svg width="31px" height="32px" viewBox="0 0 31 32" version="1.1" xmlns="http://www.w3.org/2000/svg" xmlns:xlink="http://www.w3.org/1999/xlink">
    <!-- Generator: sketchtool 52.6 (67491) - http://www.bohemiancoding.com/sketch -->
    <title>5BB2FF2B-3B13-4AD2-9314-1C7B4247014F</title>
    <desc>Created with sketchtool.</desc>
    <g id="Symbols" stroke="none" stroke-width="1" fill="none" fill-rule="evenodd" stroke-linecap="round" stroke-linejoin="round">
        <g id="icon/lamp" transform="translate(1.000000, 1.000000)" stroke="#FEFEFE" stroke-width="2">
            <g id="lamp">
                <path d="M22.2626,12.7711 C22.3456,15.0141 21.5226,17.0671 20.1336,18.5931 C18.4306,20.4651 17.3566,22.8231 17.3566,25.3531 L17.3566,26.9231 C17.3566,27.9491 17.0616,28.6571 16.5376,29.1811 C16.0136,29.7051 15.3026,30.0001 14.5616,30.0001 L13.6026,30.0001 C12.8616,30.0001 12.1506,29.7051 11.6266,29.1811 C11.1016,28.6571 10.8076,27.9461 10.8076,27.2051 L10.8076,25.1571 C10.8076,22.7191 9.7606,20.4511 8.0976,18.6671 C6.7326,17.2041 5.8956,15.2391 5.8956,13.0821 C5.8956,8.4321 9.7766,4.6831 14.4856,4.9071 C18.6776,5.1031 22.1046,8.5741 22.2626,12.7711 Z" id="Stroke-1"></path>
                <path d="M8.7493,23.4511 L19.4103,23.4511" id="Stroke-3"></path>
                <polyline id="Stroke-5" points="17.1671 12.5364 14.0801 15.6234 10.9931 12.5364"></polyline>
                <path d="M14.08,15.6236 L14.082,23.4516" id="Stroke-7"></path>
                <path d="M0,14.08 L1.225,14.08" id="Stroke-9"></path>
                <path d="M4.1239,4.1239 L4.9899,4.9899" id="Stroke-11"></path>
                <path d="M14.08,0 L14.08,1.225" id="Stroke-13"></path>
                <path d="M24.036,4.1239 L23.17,4.9899" id="Stroke-15"></path>
                <path d="M28.1599,14.08 L26.9349,14.08" id="Stroke-17"></path>
                <path d="M24.036,24.036 L23.17,23.17" id="Stroke-19"></path>
                <path d="M4.1239,24.036 L4.9899,23.17" id="Stroke-21"></path>
            </g>
        </g>
    </g>
</svg>