<svg width="253" height="200" viewBox="0 0 253 200" fill="none" xmlns="http://www.w3.org/2000/svg">
<path d="M165.579 127.38C167.443 124.732 169.171 122.272 170.718 120.065C171.26 119.293 171.74 118.607 172.154 118.016C172.402 117.662 172.573 117.418 172.66 117.293C173.876 115.555 175.865 114.519 177.986 114.519H245.501C250.859 114.519 253.916 120.639 250.697 124.923C250.602 125.05 250.602 125.05 250.151 125.651C249.533 126.472 249.189 126.931 248.606 127.705C246.943 129.918 245.089 132.384 243.092 135.039C237.385 142.625 231.673 150.211 226.334 157.293C226.266 157.382 226.266 157.382 226.198 157.472C213.382 174.468 204.817 185.762 202.321 188.924C192.872 200.888 174.66 199.359 165.797 189.158C164.811 188.023 160.072 181.205 151.856 169.126C144.16 179.797 138.962 186.758 136.778 189.215C125.531 201.863 105.805 202.67 93.824 189.218C89.8189 184.721 50.4034 127.3 -15.65 30.1713C-16.0592 29.5696 -16.0592 29.5696 -16.4684 28.9678C-40.2434 -5.99413 47.0527 -10.4131 70.0704 24.0151C70.3558 24.442 70.3558 24.442 70.6412 24.8689C105.701 77.3081 133.842 119.265 152.145 146.379C156.499 140.254 161.048 133.817 165.579 127.38Z" fill="white"/>
</svg>
