<svg width="443" height="254" viewBox="0 0 443 254" fill="none" xmlns="http://www.w3.org/2000/svg">
<path d="M291.86 128.868C295.12 124.24 298.141 119.943 300.847 116.087C301.794 114.738 302.634 113.541 303.358 112.508C303.791 111.89 304.09 111.463 304.243 111.245C306.369 108.208 309.846 106.398 313.557 106.398H431.613C440.984 106.398 446.329 117.09 440.7 124.575C440.534 124.796 440.534 124.796 439.745 125.845C438.664 127.281 438.062 128.082 437.044 129.435C434.136 133.301 430.894 137.608 427.401 142.247C417.423 155.5 407.434 168.754 398.097 181.125C397.979 181.282 397.979 181.282 397.86 181.439C375.449 211.132 360.473 230.862 356.108 236.386C339.586 257.288 307.74 254.616 292.241 236.794C290.517 234.811 282.231 222.901 267.864 201.798C254.406 220.441 245.318 232.602 241.5 236.893C221.832 258.99 187.338 260.401 166.388 236.9C159.919 229.642 100.614 143.49 0.565186 -3.35876C16.4902 -3.35876 131.412 -2.58415 157.745 -2.58415C204.312 66.9337 242.124 123.215 268.37 162.059C275.984 151.358 283.938 140.113 291.86 128.868Z" fill="#F7F7F7"/>
</svg>
