<svg width="591" height="692" viewBox="0 0 591 692" fill="none" xmlns="http://www.w3.org/2000/svg">
<path d="M379.724 517.152C384.281 510.686 388.504 504.682 392.287 499.294C393.611 497.409 394.785 495.735 395.796 494.293C396.403 493.429 396.82 492.833 397.034 492.528C400.006 488.283 404.867 485.755 410.053 485.755H575.083C588.182 485.755 595.653 500.694 587.786 511.153C587.553 511.462 587.553 511.462 586.449 512.929C584.939 514.935 584.097 516.054 582.674 517.945C578.609 523.346 574.077 529.365 569.195 535.847C555.246 554.366 541.283 572.885 528.232 590.171C528.066 590.391 528.066 590.391 527.9 590.61C496.572 632.1 475.638 659.67 469.536 667.387C446.439 696.594 401.923 692.861 380.257 667.959C377.847 665.188 366.265 648.546 346.181 619.058C327.368 645.108 314.664 662.1 309.326 668.097C281.834 698.973 233.615 700.944 204.33 668.106C195.053 657.702 108.053 531.292 -38.4231 316.321C-38.4231 176 -38.4231 73.1823 -38.4231 0.683594C21.716 90.7317 90.0035 180.78 146.267 264.823C146.965 265.866 146.965 265.866 147.663 266.908C233.363 394.919 302.147 497.342 346.887 563.53C357.531 548.578 368.651 532.865 379.724 517.152Z" fill="#F7F7F7"/>
</svg>
