<?xml version="1.0" encoding="UTF-8"?>
<svg width="50px" height="50px" viewBox="0 0 50 50" version="1.1" xmlns="http://www.w3.org/2000/svg" xmlns:xlink="http://www.w3.org/1999/xlink">
    <!-- Generator: sketchtool 52.6 (67491) - http://www.bohemiancoding.com/sketch -->
    <title>B18161BD-1C42-450C-9B28-A2F5BC73ACF6</title>
    <desc>Created with sketchtool.</desc>
    <g id="Page-1" stroke="none" stroke-width="1" fill="none" fill-rule="evenodd">
        <g id="Laraguys" transform="translate(-85.000000, -4240.000000)" fill="#FD4F31">
            <g id="Group-27" transform="translate(80.000000, 4240.000000)">
                <g id="Laravel" transform="translate(5.000000, 0.000000)">
                    <path d="M6.29678842,0 C5.85142125,0.0351210479 5.41395766,0.0295336084 4.98281695,0.148865351 C4.03952374,0.410277696 3.20134825,0.828138345 2.46196761,1.47229029 C2.02727028,1.85063976 1.64789806,2.25852284 1.32582686,2.73904263 C0.828691184,3.48097477 0.490022445,4.2783822 0.320095307,5.17596443 C0.388066162,5.29609438 0.459593632,5.42221087 0.535468075,5.55032287 C1.01719175,6.36369441 1.49931061,7.17147852 1.98221983,7.98405185 L3.25153603,10.11566 C3.64197327,10.7725832 4.03162015,11.4299056 4.42126703,12.0868288 L6.24225367,15.1551313 C6.65600649,15.852763 7.07015449,16.5507938 7.48430249,17.2480264 C8.08774142,18.2637431 8.69276107,19.2786616 9.29540964,20.2947773 L11.5119708,24.0347698 C12.1509759,25.1119483 12.7911665,26.1883286 13.4313572,27.2647089 L13.5167159,27.3900272 C13.6095831,27.4199599 13.6834816,27.3944173 13.7601464,27.3760586 C14.6034592,27.171718 15.446772,26.9685746 16.2900849,26.7650322 C17.6578007,26.4349742 19.0255166,26.1061135 20.3932325,25.7756563 L22.5355,25.25802 C23.9182327,24.92437 25.3013605,24.5915183 26.6840932,24.2570701 C28.0818427,23.9194291 29.4791971,23.5801917 30.8773417,23.2421516 C31.5839225,23.0709365 32.2905032,22.9005196 32.9974792,22.7301027 C34.3651951,22.4004438 35.7329109,22.0715831 37.1006268,21.7427224 L41.5693154,20.6679385 L41.81077,20.6020865 L41.744775,20.4699835 L40.5252514,18.729097 L39.3207446,17.0069683 L38.0324598,15.169499 L36.8010808,13.4082582 L35.5807669,11.6677709 L34.320935,9.86901446 C33.9095532,9.28233331 33.4973811,8.69645038 33.0856042,8.11016834 L32.4347437,7.18185519 C32.3351585,7.03937548 32.2557275,6.8857209 32.2027734,6.71929502 C32.0739449,6.31580208 32.2209517,6.04720588 32.4541075,5.84885178 C32.605066,5.71994157 32.778945,5.6253542 32.9670504,5.56947981 C33.2290543,5.49165476 33.4934293,5.41702253 33.7613609,5.36593737 C34.2984097,5.26336795 34.8390151,5.17636353 35.3780398,5.0857672 L37.2053493,4.78484367 C37.5906492,4.72058812 37.975554,4.65313974 38.3608539,4.58728778 C38.8844666,4.49788875 39.4080793,4.40809061 39.9320871,4.31988889 C40.440683,4.23368268 40.9492789,4.14827468 41.4578748,4.06366488 L43.1227655,3.78868304 L44.2782701,3.59272356 C44.7177096,3.51849043 45.1567539,3.44465641 45.5957982,3.3720197 C46.1435168,3.28182246 46.6908403,3.19082702 47.2385589,3.10422171 C47.5649771,3.05273745 47.8913953,3.03477782 48.2154424,3.12896608 C48.4584777,3.19960728 48.6797781,3.31454889 48.8856666,3.46141873 L49.1705909,3.66216745 C49.1990439,3.59591638 49.1579452,3.55999713 49.1389766,3.52208236 C48.72799,2.68197093 48.1676257,1.95959483 47.4555124,1.35814689 C46.7935869,0.798604737 46.0502545,0.387129732 45.2282813,0.124919182 C44.7426059,-0.0303318141 44.2434943,0.0419057958 43.7352936,0.00319282253 M21.6119657,50 C21.5874646,50 21.5657297,49.8204037 21.5380672,49.7729105 C20.9452981,48.7512073 20.3462061,47.6544727 19.7605503,46.6291776 C19.0227504,45.3368827 18.2916685,44.0405967 17.5645384,42.7419162 C16.7880109,41.3538366 16.0182014,39.961766 15.2476016,38.5704935 C14.514939,37.2478668 13.7846475,35.9240428 13.0547512,34.6002187 C12.6141262,33.8000176 12.1762674,32.99822 11.7360376,32.1976198 L11.6190645,32.0144316 L11.4048772,32.0571356 C10.9812449,32.167687 10.558403,32.2790367 10.135561,32.3915837 C9.54674374,32.548032 8.95832162,32.707274 8.36910915,32.862525 C7.04644373,33.2101436 5.7237783,33.5557666 4.40111288,33.9021879 C3.05592223,34.2549948 1.65422093,34.6085999 0.308635105,34.9598103 C0.226832971,34.9809628 0.395179391,34.9881466 0,35.0021152 L0,43.4411443 C0.162813909,43.7029558 0.147401913,43.579633 0.157676577,43.6658392 C0.188895749,43.9156776 0.239478711,44.1675114 0.282948444,44.4149552 C0.445762353,45.3368827 0.812093649,46.1809851 1.34163403,46.9496572 C2.11816154,48.0775217 3.152346,48.8837094 4.41929113,49.3770005 C4.87177154,49.5526057 5.34401091,49.6763276 5.82692013,49.736193 L6.31733775,49.8670988" id="Shape"></path>
                    <path d="M1.57710228,29.9727662 C3.13952831,29.5918023 4.70235099,29.211245 6.26477702,28.8310943 C6.95099104,28.6643972 7.63760171,28.499733 8.32381573,28.3322227 C8.66692274,28.2484676 9.01082306,28.1687783 9.35115348,28.0744521 C9.65419829,27.990697 9.69148391,27.8878327 9.53559829,27.6077002 C9.31029797,27.2027482 9.08103109,26.8002357 8.85295417,26.3965035 L6.84429071,22.8511407 L4.83642055,19.3053714 C4.15536305,18.1027128 3.47351224,16.9000542 2.79205809,15.6978021 C2.20857784,14.669159 1.6250976,13.6405159 1.04201401,12.6118728 C0.789741107,12.1670762 0.483523058,11.7210598 0.230060192,11.2766697 C0.182858187,11.1957606 0.396655503,11.098995 0,11.0558977 L0,30.3260827 C0,30.3130722 0.179684943,30.3020946 0.240373235,30.2870512 L1.57710228,29.9727662 Z M49.6707887,43.7468258 C49.0583526,43.9700373 48.4455199,44.1948751 47.8334804,44.4197129 C46.4392363,44.9320015 45.0449922,45.4442902 43.6507481,45.9569854 C42.8760799,46.2419968 42.1029984,46.5302608 41.3279335,46.8140525 C39.7484513,47.3918002 38.1681758,47.9675151 36.5882969,48.5440431 C35.672816,48.8782505 34.7569385,49.291334 33.8418542,49.6271677 C33.5911679,49.719461 33.3440516,50 33.0957452,50 L43.6031495,50 L43.8292431,49.8670489 C44.0965889,49.8552581 44.3595715,49.7739425 44.6221575,49.7247465 C45.7006638,49.5226771 46.6665199,49.044541 47.5221059,48.3456329 C48.179364,47.808543 48.7140556,47.151919 49.1329239,46.4030018 C49.5636917,45.6321293 49.8195345,44.7982373 49.9424977,43.9224676 C49.9532074,43.846844 49.9762135,43.761056 49.9143352,43.682993 C49.827071,43.6760811 49.7501198,43.7179587 49.6707887,43.7468258 Z M48.7683974,29.2844291 C48.3051038,28.634717 47.8406202,27.9862246 47.3781199,27.3361059 C46.7399012,26.4387876 46.1028725,25.5406562 45.4654471,24.6429313 C45.206431,24.2786371 44.9438451,23.917189 44.6911755,23.5488291 C44.6150177,23.4378332 44.5281501,23.408153 44.4095501,23.4410858 L44.341722,23.4610082 C43.1684151,23.753338 41.9947114,24.0448546 40.8210078,24.3363712 L38.7179403,24.8596375 C37.3467022,25.2007567 35.9750675,25.5422825 34.6038294,25.8838082 C33.2476643,26.2216748 31.8914991,26.5599479 30.5349373,26.8970014 L26.3057963,27.9467865 C24.918692,28.2919715 23.532381,28.6383762 22.1456734,28.9839678 L18.1227933,29.9849635 C17.4139699,30.1614185 16.7051465,30.3370603 15.9971164,30.5143285 C15.892796,30.5403495 15.7805425,30.5468547 15.669479,30.6330493 L15.7642797,30.8180425 C16.3580729,31.8694539 16.9518662,32.9204588 17.5472461,33.9710572 C18.2211638,35.1607053 18.8954782,36.3499468 19.5713792,37.5383752 C20.3147116,38.8447112 21.0600273,40.1502341 21.8045497,41.4561636 C22.2325409,42.2063006 22.6577556,42.9572507 23.0893168,43.7053548 C23.5688733,44.5364008 24.0500165,45.3658206 24.5382994,46.1915811 C24.6846653,46.4383741 24.8508639,46.6741895 25.0182525,46.9067523 C25.1305061,47.0620652 25.2693355,47.1946097 25.4331542,47.2958477 C25.6021294,47.4003384 25.7841943,47.4332712 25.9761756,47.3889542 C26.0753395,47.3657792 26.1725201,47.3324398 26.2685107,47.2982872 L26.6215341,47.1641164 C27.905508,46.7140342 29.1890852,46.263952 30.4734557,45.8154962 C31.4754075,45.4658388 32.4785492,45.1178078 33.4812944,44.7701833 C34.476503,44.4241852 35.472505,44.0798134 36.4681103,43.7354416 L39.4327135,42.709238 C40.4433917,42.359174 41.4536733,42.0091101 42.4639549,41.6582331 C43.7039,41.2268535 44.9434484,40.7938476 46.1841868,40.3632812 C47.3801032,39.9485713 48.5772095,39.5363009 49.7735225,39.1224042 C49.8469038,39.0971964 49.9278215,39.0866253 49.9885098,39.0040899 L49.9960462,38.825602 C49.9964429,36.2824548 49.9956496,33.738901 49.9984262,31.1957537 C49.9984262,31.0599566 49.9631238,30.9501804 49.8837927,30.8408108 C49.5077633,30.324863 49.1392703,29.8036296 48.7683974,29.2844291 Z M48.5625332,5.32151738 C48.2840811,4.96006927 47.9294711,4.84541419 47.4947366,4.96169559 C47.3055319,5.01251787 47.1111708,5.04463756 46.9183962,5.08082303 C46.2861273,5.19954389 45.6530651,5.31623186 45.0207963,5.43373299 C44.0950023,5.60612219 43.169605,5.7801377 42.2438111,5.95090059 C41.5107917,6.08588458 40.7773757,6.21883568 40.0439597,6.35056705 L37.1015691,6.87830568 C36.9782093,6.90026091 36.8536594,6.92221614 36.7346628,6.96124766 C36.5613243,7.01816862 36.5113457,7.12957107 36.5906768,7.29667475 C36.6553317,7.43328506 36.7358528,7.56379669 36.823117,7.68658334 C37.4315865,8.54608986 38.0428326,9.40356349 38.6540788,10.2614437 C39.4965751,11.44418 40.339468,12.6265097 41.1823609,13.8084328 C41.8955475,14.8086154 42.6095274,15.808798 43.3231107,16.808574 C43.8839816,17.5940833 44.4448525,18.3795926 45.0065167,19.1646953 L45.1171835,19.3021187 L49.9845432,18.0689668 L49.9960462,17.810383 C49.9964429,14.3499951 49.9956496,10.8896072 49.9984262,7.4288127 C49.9984262,7.27593926 49.9623305,7.15315261 49.8683232,7.03199228 C49.4589747,6.50222076 49.0571627,5.96635056 48.6521774,5.43291983 L48.5625332,5.32151738 Z M49.8718931,22.089213 C49.1357004,22.2705469 48.3967312,22.4429361 47.6426891,22.647445 C47.7224169,22.7925934 49.7905787,25.6540915 49.9107653,25.7898887 L49.9861298,25.8325794 L49.9944596,25.6581573 L49.9948563,24.4534658 C49.9952529,23.7545577 49.9968395,23.0556496 49.9952529,22.3567415 C49.9952529,22.2717666 50.0186556,22.1802865 49.9615372,22.0940919 L49.8718931,22.089213 Z" id="Shape"></path>
                </g>
            </g>
        </g>
    </g>
</svg>