<svg width="839" height="677" viewBox="0 0 839 677" fill="none" xmlns="http://www.w3.org/2000/svg">
<path d="M627.724 502.152C632.281 495.686 636.504 489.681 640.287 484.294C641.611 482.408 642.785 480.735 643.797 479.293C644.403 478.429 644.82 477.833 645.034 477.528C648.006 473.283 652.867 470.755 658.054 470.755H823.083C836.182 470.755 843.654 485.694 835.786 496.153C835.553 496.462 835.553 496.462 834.449 497.929C832.94 499.935 832.097 501.054 830.674 502.945C826.609 508.346 822.077 514.365 817.195 520.847C803.246 539.366 789.283 557.885 776.232 575.171C776.066 575.391 776.066 575.391 775.9 575.61C744.572 617.1 723.638 644.67 717.536 652.387C694.439 681.594 649.923 677.86 628.257 652.959C625.847 650.188 614.265 633.545 594.181 604.058C575.369 630.108 562.665 647.1 557.326 653.097C529.834 683.973 481.615 685.944 452.33 653.106C442.54 642.127 346.194 501.957 184.735 264.852C183.735 263.383 183.735 263.383 182.735 261.914C124.62 176.567 62.4795 77.1247 0.421387 -14.3165C115.017 -14.3165 149 -14.3165 217.668 -14.3165C277.807 75.7317 338.004 165.78 394.267 249.823C394.965 250.866 394.965 250.866 395.663 251.908C481.363 379.919 550.147 482.342 594.887 548.53C605.531 533.578 616.651 517.865 627.724 502.152Z" fill="#F7F7F7"/>
</svg>
