<?xml version="1.0" encoding="UTF-8"?>
<svg width="16px" height="15px" viewBox="0 0 16 15" version="1.1" xmlns="http://www.w3.org/2000/svg" xmlns:xlink="http://www.w3.org/1999/xlink">
    <!-- Generator: sketchtool 52.6 (67491) - http://www.bohemiancoding.com/sketch -->
    <title>46F5F47F-D325-47C1-8B31-68A5AB83F8EA</title>
    <desc>Created with sketchtool.</desc>
    <g id="Symbols" stroke="none" stroke-width="1" fill="none" fill-rule="evenodd">
        <g id="icon/linkedin" fill="#FB503B">
            <path d="M12.7617188,12.7265625 L12.7617188,8.47265625 C12.7617188,7.74609012 12.5039088,7.12500258 11.9882812,6.609375 C11.4726537,6.09374742 10.8515661,5.8359375 10.125,5.8359375 C9.77343574,5.8359375 9.42187676,5.93554588 9.0703125,6.13476562 C8.71874824,6.33398537 8.44921969,6.58593598 8.26171875,6.890625 L8.26171875,5.9765625 L6.01171875,5.9765625 L6.01171875,12.7265625 L8.26171875,12.7265625 L8.26171875,8.75390625 C8.26171875,8.44921723 8.36718645,8.18554799 8.578125,7.96289062 C8.78906355,7.74023326 9.05273279,7.62890625 9.36914062,7.62890625 C9.68554846,7.62890625 9.95507701,7.74023326 10.1777344,7.96289062 C10.4003917,8.18554799 10.5117188,8.44921723 10.5117188,8.75390625 L10.5117188,12.7265625 L12.7617188,12.7265625 Z M2.390625,4.32421875 C2.67187641,4.58203254 2.99999812,4.7109375 3.375,4.7109375 C3.75000187,4.7109375 4.07226428,4.58203254 4.34179688,4.32421875 C4.61132947,4.06640496 4.74609375,3.75000187 4.74609375,3.375 C4.74609375,2.99999813 4.61132947,2.67773572 4.34179688,2.40820312 C4.07226428,2.13867053 3.75000187,2.00390625 3.375,2.00390625 C2.99999812,2.00390625 2.67773572,2.13867053 2.40820312,2.40820312 C2.13867053,2.67773572 2.00390625,2.99999813 2.00390625,3.375 C2.00390625,3.75000187 2.13281121,4.06640496 2.390625,4.32421875 Z M4.5,12.7265625 L4.5,5.9765625 L2.25,5.9765625 L2.25,12.7265625 L4.5,12.7265625 Z M13.5,0 C13.9218771,0 14.2792954,0.14648291 14.5722656,0.439453125 C14.8652358,0.73242334 15.0117188,1.07812301 15.0117188,1.4765625 L15.0117188,13.5 C15.0117188,13.8984395 14.8652358,14.2441392 14.5722656,14.5371094 C14.2792954,14.8300796 13.9218771,14.9765625 13.5,14.9765625 L1.51171875,14.9765625 C1.08984164,14.9765625 0.73242334,14.8300796 0.439453125,14.5371094 C0.14648291,14.2441392 0,13.8984395 0,13.5 L0,1.4765625 C0,1.07812301 0.14648291,0.73242334 0.439453125,0.439453125 C0.73242334,0.14648291 1.08984164,0 1.51171875,0 L13.5,0 Z" id="linkedin"></path>
        </g>
    </g>
</svg>