<?xml version="1.0" encoding="UTF-8"?>
<svg width="150px" height="18px" viewBox="0 0 150 18" version="1.1" xmlns="http://www.w3.org/2000/svg" xmlns:xlink="http://www.w3.org/1999/xlink">
    <!-- Generator: sketchtool 52.6 (67491) - http://www.bohemiancoding.com/sketch -->
    <title>6FFD4C3D-CAC3-4506-9E95-55D6E205D8AC</title>
    <desc>Created with sketchtool.</desc>
    <g id="Page-1" stroke="none" stroke-width="1" fill="none" fill-rule="evenodd">
        <g id="Laraguys" transform="translate(-935.000000, -4409.000000)" fill="#D41944" fill-rule="nonzero">
            <g id="Group-28" transform="translate(933.000000, 4409.000000)">
                <g id="logo-hetzner-online" transform="translate(2.000000, 0.000000)">
                    <path d="M125.552528,13.9177033 C126.118235,13.9177033 126.581085,14.3827751 126.581085,14.9511962 L126.581085,16.9320574 C126.581085,17.5004785 126.118235,17.9655502 125.552528,17.9655502 L109.044188,17.9655502 C108.478481,17.9655502 108.015631,17.5004785 108.015631,16.9320574 L108.015631,1.03349282 C108.015631,0.46507177 108.478481,0 109.044188,0 L125.552528,0 C126.118235,0 126.581085,0.46507177 126.581085,1.03349282 L126.581085,3.01435407 C126.581085,3.58277512 126.118235,4.04784689 125.552528,4.04784689 L112.095574,4.04784689 L112.095574,6.95885167 L122.895423,6.95885167 C123.461129,6.95885167 123.92398,7.42392344 123.92398,7.9923445 L123.92398,9.95598086 C123.92398,10.5244019 123.461129,10.9894737 122.895423,10.9894737 L112.112716,10.9894737 L112.112716,13.9004785 L125.552528,13.9177033 Z M18.5140266,0.0172248804 L16.4740551,0.0172248804 C15.9083487,0.0172248804 15.4454981,0.482296651 15.4454981,1.0507177 L15.4454981,6.94162679 L4.13137074,6.94162679 L4.13137074,1.03349282 C4.13137074,0.46507177 3.66852008,0 3.10281371,0 L1.02855703,0 C0.462850664,0 0,0.46507177 0,1.03349282 L0,16.9665072 C0,17.5349282 0.462850664,18 1.02855703,18 L3.10281371,18 C3.66852008,18 4.13137074,17.5349282 4.13137074,16.9665072 L4.13137074,10.9894737 L15.4454981,10.9894737 L15.4454981,16.9665072 C15.4454981,17.5349282 15.9083487,18 16.4740551,18 L18.5140266,18 C19.0797329,18 19.5425836,17.5349282 19.5425836,16.9665072 L19.5425836,1.0507177 C19.5425836,0.482296651 19.0968755,0.0172248804 18.5140266,0.0172248804 Z M39.8051571,13.9177033 L26.3482026,13.9177033 L26.3482026,11.0066986 L37.1309088,11.0066986 C37.6966152,11.0066986 38.1594658,10.5416268 38.1594658,9.97320574 L38.1594658,8.00956938 C38.1594658,7.44114833 37.6966152,6.97607656 37.1309088,6.97607656 L26.33106,6.97607656 L26.33106,4.04784689 L39.7880145,4.04784689 C40.3537208,4.04784689 40.8165715,3.58277512 40.8165715,3.01435407 L40.8165715,1.03349282 C40.8165715,0.46507177 40.3537208,0 39.7880145,0 L23.2796741,0 C22.7139678,0 22.2511171,0.46507177 22.2511171,1.03349282 L22.2511171,16.9320574 C22.2511171,17.5004785 22.7139678,17.9655502 23.2796741,17.9655502 L39.7880145,17.9655502 C40.3537208,17.9655502 40.8165715,17.5004785 40.8165715,16.9320574 L40.8165715,14.9511962 C40.8337141,14.3827751 40.3708635,13.9177033 39.8051571,13.9177033 Z M61.1648581,0.0344497608 L44.0565261,0.0344497608 C43.4908198,0.0344497608 43.0279691,0.499521531 43.0279691,1.06794258 L43.0279691,3.04880383 C43.0279691,3.61722488 43.4908198,4.08229665 44.0565261,4.08229665 L50.5707207,4.08229665 L50.5707207,16.9665072 C50.5707207,17.5349282 51.0335713,18 51.5992777,18 L53.8106753,18 C54.3763817,18 54.8392323,17.5349282 54.8392323,16.9665072 L54.8392323,4.08229665 L61.1820007,4.08229665 C61.7477071,4.08229665 62.2105577,3.61722488 62.2105577,3.04880383 L62.2105577,1.0507177 C62.1934151,0.499521531 61.7305645,0.0344497608 61.1648581,0.0344497608 Z M82.5759869,13.8660287 L71.1247187,13.8660287 L82.4045608,3.91004785 C82.8331262,3.53110048 83.1759785,2.77320574 83.1759785,2.20478469 L83.1759785,1.0507177 C83.1759785,0.482296651 82.7131279,0.0172248804 82.1474215,0.0172248804 L65.4162271,0.0172248804 C64.8505208,0.0172248804 64.3876701,0.482296651 64.3876701,1.0507177 L64.3876701,3.04880383 C64.3876701,3.61722488 64.8505208,4.08229665 65.4162271,4.08229665 L76.1989333,4.08229665 C76.0617924,4.18564593 64.9705191,13.9521531 64.9705191,13.9521531 C64.5419537,14.3311005 64.1991013,15.1062201 64.1991013,15.6574163 L64.1991013,16.9492823 C64.1991013,17.5177033 64.661952,17.9827751 65.2276584,17.9827751 L82.5759869,17.9827751 C83.1416933,17.9827751 83.604544,17.5177033 83.604544,16.9492823 L83.604544,14.8822967 C83.604544,14.3311005 83.1416933,13.8660287 82.5759869,13.8660287 Z M105.632807,6.28708134 L105.632807,5.89090909 C105.632807,4.6507177 105.32424,3.56555024 104.724248,2.61818182 C103.695691,1.01626794 102.221426,0.0861244019 100.404309,3.55271368e-15 L86.7587855,3.55271368e-15 C86.1930792,3.55271368e-15 85.7302285,0.46507177 85.7302285,1.03349282 L85.7302285,16.9320574 C85.7302285,17.5004785 86.1930792,17.9655502 86.7587855,17.9655502 L88.9358979,17.9655502 C89.5016043,17.9655502 89.9473123,17.5177033 89.9644549,16.9492823 L89.9644549,4.04784689 L98.6900471,4.04784689 C100.198597,4.04784689 101.432866,5.28803828 101.432866,6.80382775 L101.432866,16.9492823 C101.432866,17.5177033 101.895716,17.9827751 102.461423,17.9827751 L104.621393,17.9827751 C105.187099,17.9827751 105.64995,17.5177033 105.64995,16.9492823 L105.64995,6.28708134 L105.632807,6.28708134 Z M144.049412,11.4373206 C144.186553,11.5751196 149.775046,17.2421053 149.775046,17.2421053 C150.169326,17.6382775 150.032186,17.9827751 149.466479,17.9827751 L145.86653,17.9827751 C145.300823,17.9827751 144.649404,17.6555024 144.255124,17.2421053 L139.540904,12.5052632 C139.146624,12.091866 138.358063,11.7645933 137.792357,11.7645933 L133.009567,11.7645933 L133.009567,16.9492823 C133.009567,17.5177033 132.546716,17.9827751 131.98101,17.9827751 L130.043894,17.9827751 C129.478188,17.9827751 129.015337,17.5177033 129.015337,16.9492823 L129.015337,1.0507177 C129.015337,0.482296651 129.478188,0.0172248804 130.043894,0.0172248804 L140.226609,0.0344497608 C140.792315,0.0344497608 141.718016,0.0516746411 142.283723,0.0688995215 C142.283723,0.0688995215 143.157996,0.0861244019 143.175139,0.0861244019 C144.992256,0.189473684 146.432236,1.0507177 147.460793,2.65263158 C148.077927,3.58277512 148.386494,4.68516746 148.386494,5.92535885 C148.386494,7.40669856 147.923644,8.71578947 147.032228,9.80095694 L146.997942,9.8354067 C146.26081,10.7311005 145.163682,11.1617225 144.049412,11.4373206 Z M144.237981,6.21818182 L144.237981,6.01148325 C144.237981,5.97703349 144.255124,5.95980861 144.255124,5.92535885 C144.255124,5.89090909 144.255124,5.85645933 144.237981,5.82200957 L144.237981,5.58086124 C144.237981,4.75406699 143.552276,4.06507177 142.729431,4.06507177 L133.026709,4.06507177 L133.026709,7.73397129 L142.729431,7.73397129 C143.569419,7.73397129 144.237981,7.04497608 144.237981,6.21818182 Z" id="Shape"></path>
                </g>
            </g>
        </g>
    </g>
</svg>