<?xml version="1.0" encoding="UTF-8"?>
<svg width="156px" height="21px" viewBox="0 0 156 21" version="1.1" xmlns="http://www.w3.org/2000/svg" xmlns:xlink="http://www.w3.org/1999/xlink">
    <!-- Generator: sketchtool 52.6 (67491) - http://www.bohemiancoding.com/sketch -->
    <title>4DF636A4-D225-4561-BA1E-4F47B16AAD48</title>
    <desc>Created with sketchtool.</desc>
    <g id="Symbols" stroke="none" stroke-width="1" fill="none" fill-rule="evenodd">
        <g id="logo/main">
            <g id="logo">
                <path d="M48,6 L50.2290892,6 L50.2290892,18.2352578 L55,18.2352578 L55,20 L48,20 L48,6 Z M62.2000919,6 L64.8198855,6 L70,20 L67.5597732,20 L66.479846,16.918159 L60.520154,16.918159 L59.4399972,20 L57,20 L62.2000919,6 Z M63.5,8.49808366 L61.1601194,15.1453777 L65.8398806,15.1453777 L63.5,8.49808366 Z M76.1000166,12.8944646 L78.5575503,12.8944646 C80.3519934,12.8944646 81.2491029,12.1041545 81.2491029,10.5230878 C81.2491029,9.77161246 81.0314318,9.18507333 80.5958657,8.76369362 C80.1600755,8.34276029 79.480861,8.13207043 78.5575503,8.13207043 L76.1000166,8.13207043 L76.1000166,12.8944646 Z M81.1127226,19.9507893 L77.6799237,14.4690588 L76.1000166,14.4690588 L76.1000166,19.9507893 L73.8765017,19.9507893 L73.8765017,6.2269342 L78.7331205,6.2269342 C80.3063093,6.2269342 81.4994695,6.60925594 82.3121531,7.37389942 C83.1246128,8.1385429 83.5312905,9.14958638 83.5312905,10.4063603 C83.5312905,11.4821284 83.2289695,12.3632762 82.6243276,13.050027 C82.0196856,13.7370009 81.1449702,14.1775748 80.0008532,14.3719719 L83.6092222,19.9507893 L81.1127226,19.9507893 Z M95.1969395,15.2660646 L92.9149759,8.85118348 L90.6327883,15.2660646 L95.1969395,15.2660646 Z M95.8210644,16.9768038 L90.0086634,16.9768038 L88.9554666,19.9507893 L86.5758645,19.9507893 L91.6470192,6.4407487 L94.2021915,6.4407487 L99.2536394,19.9507893 L96.8742612,19.9507893 L95.8210644,16.9768038 Z M112.241416,7.31551333 C113.333803,8.11921478 114.055566,9.2141771 114.406483,10.6006235 L112.06607,10.6006235 C111.766661,9.86209304 111.276005,9.27242928 110.593431,8.83163217 C109.910857,8.39128145 109.101309,8.17099449 108.16501,8.17099449 C107.306866,8.17099449 106.536283,8.37186406 105.853934,8.77338 C105.171136,9.17534232 104.637931,9.74536551 104.25432,10.4841191 C103.870708,11.2226496 103.679014,12.0910757 103.679014,13.088951 C103.679014,14.1386061 103.874067,15.0393945 104.264173,15.7908699 C104.654279,16.5425684 105.203384,17.1161626 105.912158,17.5112061 C106.620709,17.9066959 107.443246,18.1042177 108.379546,18.1042177 C109.523663,18.1042177 110.505646,17.7511336 111.324824,17.0447423 C112.143778,16.3385742 112.638017,15.3699365 112.807093,14.1386061 L107.755421,14.1386061 L107.755421,12.5057597 L114.679691,12.5057597 L114.679691,14.6247104 C114.52338,15.6353075 114.16261,16.5523887 113.597158,17.3752843 C113.031258,18.1984032 112.283517,18.8559162 111.353936,19.3482699 C110.424355,19.8408467 109.361305,20.0870235 108.16501,20.0870235 C106.825616,20.0870235 105.642309,19.7888438 104.615089,19.1927075 C103.58787,18.5967945 102.794445,17.770551 102.235711,16.7142003 C101.676305,15.6580728 101.39705,14.4495075 101.39705,13.088951 C101.39705,11.7281713 101.676305,10.5198293 102.235711,9.46347855 C102.794445,8.4075742 103.584511,7.58467855 104.60546,6.99479159 C105.626185,6.40512783 106.806133,6.11029594 108.145527,6.11029594 C109.783883,6.11029594 111.149254,6.51203507 112.241416,7.31551333 Z M120.811769,6.2269342 L120.811769,14.3719719 C120.811769,15.5901342 121.081618,16.4973951 121.621093,17.0933081 C122.160568,17.6894443 122.918162,17.9874009 123.893651,17.9874009 C124.855704,17.9874009 125.60658,17.6894443 126.146279,17.0933081 C126.68553,16.4973951 126.955827,15.5901342 126.955827,14.3719719 L126.955827,6.2269342 L129.179118,6.2269342 L129.179118,14.3719719 C129.179118,16.2512183 128.691821,17.6733748 127.716332,18.6386646 C126.741291,19.6044009 125.453852,20.0869342 123.854462,20.0869342 C122.26806,20.0869342 120.993609,19.6044009 120.031781,18.6386646 C119.06928,17.6733748 118.588254,16.2512183 118.588254,14.3719719 L118.588254,6.2269342 L120.811769,6.2269342 Z M143.8854,6.2269342 L139.301989,14.95494 L139.301989,19.9507893 L137.058992,19.9507893 L137.058992,14.95494 L132.455875,6.2269342 L135.03053,6.2269342 L138.19012,12.58334 L141.349934,6.2269342 L143.8854,6.2269342 Z M155.383384,18.1722009 C155.058221,18.7489197 154.564206,19.2122588 153.901115,19.5622183 C153.2378,19.9119545 152.425117,20.0869342 151.46284,20.0869342 C150.526765,20.0869342 149.68788,19.9215516 148.946858,19.5912328 C148.205611,19.2606907 147.613958,18.7975748 147.171898,18.2012154 C146.729613,17.6053023 146.476335,16.9183284 146.411392,16.14074 L148.790994,16.14074 C148.855937,16.7370994 149.112574,17.2488704 149.561353,17.6764994 C150.009908,18.1041284 150.610967,18.3179429 151.365426,18.3179429 C152.041281,18.3179429 152.564856,18.1367139 152.935479,17.7735864 C153.306102,17.4109052 153.491526,16.9444414 153.491526,16.3739719 C153.491526,15.8816183 153.354698,15.4767545 153.081937,15.1591574 C152.808728,14.8417835 152.470353,14.5922588 152.067482,14.4108067 C151.664388,14.2293545 151.111924,14.0220125 150.409643,13.7887806 C149.5515,13.5164907 148.852354,13.2444241 148.313103,12.9723574 C147.773404,12.7000675 147.314996,12.3050241 146.937879,11.7865574 C146.560761,11.2683139 146.372426,10.5880357 146.372426,9.74549942 C146.372426,9.0067458 146.554267,8.35882986 146.918396,7.80152841 C147.282301,7.24445014 147.802293,6.81347333 148.47882,6.50882116 C149.154899,6.20439217 149.934888,6.05195449 150.819232,6.05195449 C152.223793,6.05195449 153.33835,6.38919217 154.16447,7.06277478 C154.989918,7.73680377 155.461539,8.61795159 155.578437,9.70644145 L153.179352,9.70644145 C153.088207,9.18842116 152.844335,8.74427623 152.447959,8.37512261 C152.051134,8.00552261 151.5083,7.8209458 150.819232,7.8209458 C150.195108,7.8209458 149.694598,7.97985594 149.317481,8.29722986 C148.940363,8.61482696 148.751805,9.07169362 148.751805,9.66760667 C148.751805,10.1340704 148.881691,10.5199632 149.141911,10.8243922 C149.401907,11.1288212 149.730205,11.3685255 150.126805,11.5435052 C150.523406,11.7184849 151.06624,11.9227023 151.755532,12.155711 C152.62644,12.4280009 153.33835,12.7034154 153.891262,12.9819545 C154.443949,13.26094 154.911987,13.6658038 155.295599,14.196769 C155.678986,14.7284038 155.871128,15.4283226 155.871128,16.2963023 C155.871128,16.9703313 155.708099,17.5957052 155.383384,18.1722009 Z" id="Combined-Shape" fill="#000000"></path>
                <path d="M39.7649073,7.04469652 C39.5870978,6.6755429 39.2124437,6.44097188 38.8015111,6.44097188 L28.0897184,6.44097188 C28.0740425,6.44097188 28.0592624,6.44543565 28.0435865,6.44610522 C27.9947673,6.4483371 27.9468438,6.45369362 27.8986964,6.46239797 C27.8715994,6.46730812 27.8449504,6.47221826 27.8185253,6.4791371 C27.7703779,6.49163565 27.724022,6.50904435 27.6778901,6.52823855 C27.6548241,6.53783565 27.6315342,6.54587043 27.60914,6.55702986 C27.559425,6.58202696 27.5128452,6.61282696 27.4671611,6.64563565 C27.4512613,6.65701826 27.4342417,6.66572261 27.4190137,6.67799797 C27.3601171,6.7255371 27.3045796,6.77910232 27.2550886,6.84047913 L24.3814715,10.4195284 L20.2253417,15.5957139 C20.2253417,15.5957139 20.2253417,15.5954907 20.2253417,15.5954907 L19.2823241,16.7701313 C18.67813,17.5224994 17.8961264,17.9369603 17.0800836,17.9369603 C16.2640409,17.9369603 15.4820372,17.5224994 14.8778431,16.7701313 L3.29290266,2.34211681 L11.2670108,2.34211681 L20.0255859,13.2500038 L21.3943162,11.5450675 L12.6151385,0.611513913 C12.4122475,0.358864638 12.1052237,0.212006667 11.7807325,0.212006667 L1.06871591,0.212006667 C0.6577833,0.212006667 0.283353151,0.44680087 0.105543618,0.815731304 C-0.072489856,1.18488493 -0.0223269652,1.62278058 0.234309967,1.94260957 L13.2090312,18.101227 C14.2268453,19.3689371 15.601622,20.0670704 17.0800836,20.0670704 C18.5583213,20.0670704 19.933098,19.3689371 20.9513599,18.101227 L21.6153464,17.2740907 L25.6429339,12.2581545 L28.6034402,8.57108203 L36.5775483,8.57108203 L29.9943407,16.7701313 C29.3899227,17.5224994 28.607919,17.9369603 27.7918763,17.9369603 C26.9760575,17.9369603 26.1940538,17.5224994 25.5896358,16.7701313 L24.846598,15.8443458 L23.4776437,17.5490588 L23.9210478,18.101227 C24.9388619,19.3689371 26.3138625,20.0670704 27.7918763,20.0670704 C29.270114,20.0670704 30.6451146,19.3689371 31.6631526,18.101227 L39.635917,8.17157478 C39.8927779,7.85196899 39.9429408,7.41385014 39.7649073,7.04469652" id="Fill-17" fill="#FB503B"></path>
            </g>
        </g>
    </g>
</svg>