<svg width="9" height="11" viewBox="0 0 9 11" fill="none" xmlns="http://www.w3.org/2000/svg">
<path id="Fill 1" fill-rule="evenodd" clip-rule="evenodd" d="M4.5 7C3.12857 7 2 5.88571 2 4.5C2 3.12857 3.11429 2 4.5 2C5.87143 2 7 3.11429 7 4.5C7 5.87143 5.87143 7 4.5 7ZM4.5 0C2.0159 0 0 1.88713 0 4.19639C0 5.11512 0.312139 5.9842 0.897399 6.70429L4.16185 10.8386C4.23988 10.9379 4.36994 11 4.5 11C4.63006 11 4.76012 10.9379 4.83815 10.8386L8.1026 6.70429C8.68786 5.97178 9 5.10271 9 4.19639C9 1.87472 6.9841 0 4.5 0Z" fill="#FB503B"/>
</svg>
