<?xml version="1.0" encoding="UTF-8"?>
<svg width="34px" height="48px" viewBox="0 0 34 48" version="1.1" xmlns="http://www.w3.org/2000/svg" xmlns:xlink="http://www.w3.org/1999/xlink">
    <!-- Generator: sketchtool 52.6 (67491) - http://www.bohemiancoding.com/sketch -->
    <title>E0448C5E-6DBA-4461-B4C0-5237E7F8019F</title>
    <desc>Created with sketchtool.</desc>
    <g id="Symbols" stroke="none" stroke-width="1" fill="none" fill-rule="evenodd" stroke-linecap="round" stroke-linejoin="round">
        <g id="icon/experience" transform="translate(-7.000000, 1.000000)" stroke="#FB503B" stroke-width="2">
            <g id="medal" transform="translate(8.000000, 0.000000)">
                <path d="M16,0 C24.837,0 32,7.163 32,16 C32,24.837 24.837,32 16,32 C7.163,32 0,24.837 0,16 C0,7.163 7.163,0 16,0 Z" id="Stroke-1"></path>
                <polyline id="Stroke-3" points="24.0001 29.8565 24.0001 45.9995 20.0001 43.2355 16.0001 45.9995 16.0001 31.9995"></polyline>
                <polyline id="Stroke-5" points="16.0001 42 12.0001 39.235 8.0001 42 8.0001 29.857"></polyline>
                <polygon id="Stroke-7" points="16 6.1005 18.223 12.9405 25.415 12.9405 19.596 17.1685 21.819 24.0085 16 19.7815 10.181 24.0085 12.404 17.1685 6.585 12.9405 13.777 12.9405"></polygon>
            </g>
        </g>
    </g>
</svg>