<svg width="129" height="145" viewBox="0 0 129 145" fill="none" xmlns="http://www.w3.org/2000/svg">
<g id="ill">
<path id="Fill 1" fill-rule="evenodd" clip-rule="evenodd" d="M41.8792 139.247L45.6342 106.066L41.1162 68.9191L42.1322 61.0171L62.3112 60.2511L63.0402 73.1121L59.6522 106.117L46.9072 140.943L41.8792 139.247Z" fill="#33435A"/>
<path id="Fill 2" fill-rule="evenodd" clip-rule="evenodd" d="M77.1184 63.9692L77.1714 97.4532L70.4314 140.559L65.5804 140.51L62.9134 100.648L56.6724 60.7502L77.1184 63.9692Z" fill="#33435A"/>
<path id="Fill 3" fill-rule="evenodd" clip-rule="evenodd" d="M42.0435 140.12L41.7085 142.722L46.5775 145L49.5145 143.725L47.2475 140.79L42.3785 137.519L42.0435 140.12Z" fill="#A53232"/>
<path id="Fill 4" fill-rule="evenodd" clip-rule="evenodd" d="M65.5874 142.556L70.8074 144.238L73.4574 142.634L70.8594 139.986L65.6134 139.932L65.5874 142.556Z" fill="#A53232"/>
<g id="Group 23">
<path id="Fill 5" fill-rule="evenodd" clip-rule="evenodd" d="M60.704 25.2882C60.025 25.6232 58.422 25.7442 56.75 25.0892C56.413 24.9572 56.186 24.6322 56.19 24.2702C56.204 23.2542 56.285 22.2402 56.435 21.2352C55.181 20.7942 53.731 20.1332 53.513 18.8222C53.444 18.4082 53.515 17.9862 53.587 17.5742C53.881 15.8682 54.176 14.1622 54.471 12.4572C54.573 11.8672 54.681 11.2592 55.002 10.7542C55.565 9.86719 56.658 9.47919 57.693 9.29919C60.334 8.84119 63.212 9.41319 65.26 11.1432C65.805 11.6032 66.298 12.1572 66.539 12.8292C66.909 13.8652 66.632 15.0072 66.353 16.0712C66.095 17.0532 65.837 18.0352 65.579 19.0172C65.282 20.1472 64.854 21.4312 63.766 21.8552C63.188 22.0802 62.506 22.0142 61.982 22.3472C61.06 22.9342 61.184 24.3062 60.704 25.2882Z" fill="#EFCCC7"/>
<path id="Fill 7" fill-rule="evenodd" clip-rule="evenodd" d="M75.9486 8.27727C76.2076 7.85127 76.4876 7.44027 76.8006 7.05427C77.4776 6.22027 78.3126 5.50427 78.8576 4.57727C79.4026 3.65027 79.5936 2.39427 78.9396 1.54027C78.5176 0.989272 77.8336 0.714272 77.1676 0.518273C74.9736 -0.126727 72.6066 -0.170727 70.3906 0.393273C68.2806 0.930273 66.3916 1.82027 64.2676 1.02627C62.2706 0.281273 60.8296 0.585272 58.7436 1.32927C56.4856 2.13427 53.4546 2.32427 51.4116 3.46227C50.5576 3.93727 49.8766 4.67927 49.3456 5.49827C47.5076 8.33927 47.4966 12.2553 49.3216 15.1043C49.7306 15.7443 50.2196 16.3283 50.7346 16.8863C51.7996 18.0413 53.0736 19.4683 54.5386 19.8963C54.5736 18.5853 53.3796 14.4523 54.3866 13.3783C55.9836 11.6733 59.5956 12.2683 61.5776 12.6883C63.7386 13.1463 65.6656 14.6763 67.8086 15.0033C69.3506 15.2393 71.3186 14.4833 72.6306 13.6863C74.2486 12.7013 75.0016 9.83227 75.9486 8.27727Z" fill="#33435A"/>
<path id="Fill 9" fill-rule="evenodd" clip-rule="evenodd" d="M64.2056 23.5375L74.3556 26.3025L86.0946 47.1025L80.5346 52.2515L72.7086 42.9835L64.2056 23.5375Z" fill="#FB503B"/>
<path id="Fill 11" fill-rule="evenodd" clip-rule="evenodd" d="M39.0279 75.3573C39.0739 73.9063 39.1549 72.6953 39.1659 72.2633C39.2699 68.3703 39.6169 64.4863 40.1039 60.6223C40.5409 57.1583 41.0919 48.5603 41.6849 45.1183C42.1739 42.2763 43.8799 35.1833 45.1119 32.5473C48.1759 25.9913 47.2289 25.3863 60.6889 23.4393C66.5879 22.5863 67.9819 26.2623 72.8049 30.4903C73.2799 30.9073 73.2539 33.3903 73.3649 34.0473C73.5589 35.2053 73.7669 36.3603 74.0059 37.5113C74.1939 38.4153 74.4009 39.3163 74.6329 40.2123L74.6319 40.2113C74.6319 40.2113 78.6809 58.6363 81.3579 62.5493C84.0359 66.4623 89.5669 71.9323 80.3139 75.2723C78.6749 75.8033 77.0249 76.3073 75.3179 76.5763C75.3179 76.5763 67.7509 75.7363 63.8599 75.7653C60.2749 75.7913 56.6769 76.1543 53.1529 76.7623C50.7969 77.1553 48.3929 77.7283 46.2849 78.8293C44.2739 79.8793 42.8229 81.4243 40.7819 82.5123C40.5889 82.6153 40.3769 82.7213 40.1579 82.6913C38.9859 82.5293 38.9309 78.4113 39.0279 75.3573Z" fill="#FB503B"/>
<path id="Fill 13" fill-rule="evenodd" clip-rule="evenodd" d="M49.5141 25.959L41.1161 33.318L31.7471 53.006L43.5801 67.084L45.6161 59.211L49.5141 25.959Z" fill="#FB503B"/>
<mask id="mask0" mask-type="alpha" maskUnits="userSpaceOnUse" x="0" y="0" width="129" height="145">
<path id="Clip 16" fill-rule="evenodd" clip-rule="evenodd" d="M0 145H128.411V0H0V145Z" fill="white"/>
</mask>
<g mask="url(#mask0)">
<path id="Fill 15" fill-rule="evenodd" clip-rule="evenodd" d="M31.4648 94.072H91.4308V48.949H31.4648V94.072Z" fill="white"/>
<path id="Fill 17" fill-rule="evenodd" clip-rule="evenodd" d="M107.068 33.3267L3.25439 41.1417L57.5984 69.5967L107.068 33.3267Z" fill="#EDEDED"/>
<path id="Fill 18" fill-rule="evenodd" clip-rule="evenodd" d="M0 43.5285L5.033 110.382L102.349 103.055C109.71 102.501 115.197 95.6755 114.605 87.8075L110.644 35.1985L57.919 73.8555L0 43.5285Z" fill="#EDEDED"/>
<path id="Fill 19" fill-rule="evenodd" clip-rule="evenodd" d="M88.4415 34.729C88.3735 35.621 88.3725 36.528 88.4415 37.447C88.6545 40.281 89.5185 42.91 90.8735 45.201L107.069 33.327L88.4415 34.729Z" fill="#D6D4D4"/>
<path id="Fill 20" fill-rule="evenodd" clip-rule="evenodd" d="M107.624 53.9439C109.145 53.8289 110.607 53.5269 111.989 53.0629L110.644 35.1989L93.0239 48.1169C96.6039 52.0619 101.901 54.3749 107.624 53.9439Z" fill="#D6D4D4"/>
<path id="Fill 21" fill-rule="evenodd" clip-rule="evenodd" d="M92.6807 34.9001C91.9387 25.0481 99.3247 16.4591 109.178 15.7171C119.03 14.9761 127.618 22.3611 128.36 32.2141C129.102 42.0661 121.716 50.6551 111.864 51.3971C102.011 52.1381 93.4227 44.7531 92.6807 34.9001Z" fill="#FB503B"/>
<path id="Fill 22" fill-rule="evenodd" clip-rule="evenodd" d="M114.243 43.3375L110.054 43.5875L109.231 29.7965L106.613 29.9525L106.363 25.7635L113.171 25.3575L114.243 43.3375Z" fill="white"/>
</g>
</g>
</g>
</svg>
