<?xml version="1.0" encoding="UTF-8"?>
<svg width="48px" height="36px" viewBox="0 0 48 36" version="1.1" xmlns="http://www.w3.org/2000/svg" xmlns:xlink="http://www.w3.org/1999/xlink">
    <!-- Generator: sketchtool 52.6 (67491) - http://www.bohemiancoding.com/sketch -->
    <title>31926BFB-FA48-48C9-8670-C305F75CC301</title>
    <desc>Created with sketchtool.</desc>
    <g id="Symbols" stroke="none" stroke-width="1" fill="none" fill-rule="evenodd" stroke-linecap="round" stroke-linejoin="round">
        <g id="icon/team" transform="translate(0.000000, -6.000000)" stroke="#FB503B" stroke-width="2">
            <g id="people" transform="translate(1.000000, 7.000000)">
                <path d="M29.1617,12.3357 C29.1617,12.6317 29.1367,12.9397 29.0877,13.2237 C28.6687,16.1967 26.1147,18.4917 23.0187,18.5037 L23.0057,18.5037 L23.0057,18.4917 C23.0057,18.4917 22.9817,18.4917 22.9937,18.5037 L22.9817,18.5037 C19.8847,18.4917 17.3197,16.1967 16.8997,13.2117 C16.8507,12.9277 16.8257,12.6317 16.8257,12.3357 C16.8257,11.3117 17.0727,10.3497 17.5167,9.5107 C17.5417,9.4737 17.5657,9.4367 17.5787,9.3997 C17.6647,9.2767 17.7387,9.1407 17.8127,8.9927 C17.8127,8.9927 17.8247,8.9927 17.8247,8.9807 C18.9227,7.2907 20.8227,6.1677 22.9937,6.1677 C25.2017,6.1677 27.1507,7.3397 28.2237,9.0917 C28.3107,9.2267 28.3847,9.3627 28.4587,9.4857 C28.9147,10.3377 29.1617,11.3117 29.1617,12.3357 Z" id="Stroke-1"></path>
                <path d="M23.0061,18.4913 L23.0061,18.5033 L22.9941,18.5033 C22.9811,18.4913 23.0061,18.4913 23.0061,18.4913 Z" id="Stroke-3"></path>
                <path d="M35.3296,30.8394 L35.3296,33.3064 L10.6576,33.3064 L10.6576,30.8394 C10.6576,29.5444 10.8556,28.3104 11.2256,27.1384 C12.7926,22.1424 17.4676,18.5034 22.9816,18.5034 L23.0186,18.5034 C26.4106,18.5164 29.4826,19.8854 31.7156,22.1184 C33.0966,23.4994 34.1576,25.2144 34.7626,27.1384 C35.1326,28.3104 35.3296,29.5444 35.3296,30.8394 Z" id="Stroke-5"></path>
                <path d="M22.9815,18.5036 C17.4675,18.5036 12.7925,22.1426 11.2255,27.1386 L-0.0005,27.1386 L-0.0005,24.6716 C-0.0005,17.8626 5.5145,12.3356 12.3355,12.3356 C13.9515,12.3356 15.4935,12.6446 16.8995,13.2116" id="Stroke-7"></path>
                <path d="M23.0061,18.4913 L23.0061,18.5033 L22.9941,18.5033 C22.9811,18.4913 23.0061,18.4913 23.0061,18.4913 Z" id="Stroke-9"></path>
                <path d="M18.5036,6.1678 C18.5036,7.1798 18.2566,8.1418 17.8256,8.9808 C17.8256,8.9928 17.8126,8.9928 17.8126,8.9928 C17.7516,9.1408 17.6776,9.2768 17.5786,9.3998 C17.5656,9.4368 17.5416,9.4738 17.5166,9.5108 C16.4186,11.2128 14.5066,12.3358 12.3356,12.3358 C8.9186,12.3358 6.1676,9.5728 6.1676,6.1678 C6.1676,2.7628 8.9186,-0.0002 12.3356,-0.0002 C15.7406,-0.0002 18.5036,2.7628 18.5036,6.1678 Z" id="Stroke-11"></path>
                <path d="M22.9939,18.5036 C22.9819,18.4916 23.0059,18.4916 23.0059,18.4916 L23.0059,18.5036 L22.9939,18.5036 Z" id="Stroke-13"></path>
                <path d="M29.0877,13.2239 C30.5067,12.6439 32.0487,12.3359 33.6647,12.3359 C37.0687,12.3359 40.1527,13.7169 42.3857,15.9499 C44.6187,18.1829 45.9997,21.2669 45.9997,24.6719 L45.9997,27.1389 L34.7617,27.1389 C34.1577,25.2139 33.0967,23.4999 31.7157,22.1179 C29.4827,19.8849 26.4107,18.5159 23.0187,18.5039" id="Stroke-15"></path>
                <path d="M39.8321,6.1678 C39.8321,9.5728 37.0691,12.3358 33.6641,12.3358 C31.4811,12.3358 29.5561,11.2008 28.4581,9.4858 C28.3841,9.3628 28.3101,9.2268 28.2241,9.0918 C27.7681,8.2278 27.4961,7.2288 27.4961,6.1678 C27.4961,2.7628 30.2591,-0.0002 33.6641,-0.0002 C37.0691,-0.0002 39.8321,2.7628 39.8321,6.1678 Z" id="Stroke-17"></path>
            </g>
        </g>
    </g>
</svg>