<?xml version="1.0" encoding="UTF-8"?>
<svg width="53px" height="48px" viewBox="0 0 53 48" version="1.1" xmlns="http://www.w3.org/2000/svg" xmlns:xlink="http://www.w3.org/1999/xlink">
    <!-- Generator: sketchtool 52.6 (67491) - http://www.bohemiancoding.com/sketch -->
    <title>99F8BE80-CC17-4271-B507-8F2E46CDD64A</title>
    <desc>Created with sketchtool.</desc>
    <g id="Page-1" stroke="none" stroke-width="1" fill="none" fill-rule="evenodd">
        <g id="Laraguys" transform="translate(-293.000000, -4402.000000)">
            <g id="Group-24" transform="translate(293.000000, 4402.000000)">
                <g id="Sketch_Logo">
                    <polygon id="Path" fill="#FDB300" points="11.5636364 1.58035715 26.5000001 0 41.4363637 1.58035715 53 17.1160714 26.5000001 48 0 17.1160714"></polygon>
                    <g id="Group" transform="translate(0.000000, 17.000000)">
                        <polygon id="Path" fill="#EA6C00" points="10.7121878 0 26.4465964 30.9921485 0 0"></polygon>
                        <polygon id="Path" fill="#EA6C00" transform="translate(39.669823, 15.496074) scale(-1, 1) translate(-39.669823, -15.496074) " points="37.1587127 0 52.8931213 30.9921485 26.4465249 0"></polygon>
                        <polygon id="Path" fill="#FDAD00" points="10.7121878 0 42.1810051 0 26.4465964 30.9921485"></polygon>
                    </g>
                    <g id="Group">
                        <polygon id="Path" fill="#FDD231" points="26.4465964 0 11.5402792 1.56814961 10.7121878 16.9840709"></polygon>
                        <polygon id="Path" fill="#FDD231" transform="translate(34.313720, 8.492035) scale(-1, 1) translate(-34.313720, -8.492035) " points="42.1809238 0 27.2746066 1.56814961 26.4465152 16.9840709"></polygon>
                        <polygon id="Path" fill="#FDAD00" transform="translate(47.122982, 9.276110) scale(-1, 1) translate(-47.122982, -9.276110) " points="41.3527749 16.9840709 52.8931886 1.56814961 52.0649627 16.9840709"></polygon>
                        <polygon id="Path" fill="#FDAD00" points="0 16.9840709 11.5402792 1.56814961 10.7121878 16.9840709"></polygon>
                        <polygon id="Path" fill="#FEEEB7" points="26.4465964 0 10.7121878 16.9840709 42.1810051 16.9840709"></polygon>
                    </g>
                </g>
            </g>
        </g>
    </g>
</svg>