<?xml version="1.0" encoding="UTF-8"?>
<svg width="48px" height="48px" viewBox="0 0 48 48" version="1.1" xmlns="http://www.w3.org/2000/svg" xmlns:xlink="http://www.w3.org/1999/xlink">
    <!-- Generator: sketchtool 52.6 (67491) - http://www.bohemiancoding.com/sketch -->
    <title>73F5437B-4DCB-43EA-80AD-181D67A3D470</title>
    <desc>Created with sketchtool.</desc>
    <g id="Symbols" stroke="none" stroke-width="1" fill="none" fill-rule="evenodd" stroke-linecap="round" stroke-linejoin="round">
        <g id="icon/task" transform="translate(1.000000, 1.000000)" stroke="#FB503B" stroke-width="2">
            <g id="task">
                <path d="M18.29,29 L18,29.22" id="Stroke-1"></path>
                <g id="Group-18">
                    <path d="M25.36,28.21 C25.36,28.88 25.11,29.54 24.6,30.05 L20.1,34.55 C19.81,34.84 19.63,35.22 19.53,35.62 C19.41,36.09 19.16,36.54 18.79,36.91 L18,37.7 L15,40.71 C13.64,42.07 11.41,42.09 10.03,40.75 L5.43,36.14 C4.75,35.47 4.75,34.37 5.43,33.7 C6.01,33.11 6.48,32.43 6.81,31.67 C8,28.94 9.2,26.21 10.39,23.47 C10.49,23.18 10.77,22.52 11.44,21.97 C12.19,21.35 12.98,21.23 13.28,21.2 C13.47,21.2 13.692,21.16 13.872,21.2 L18,21.26 L18,26.72 L13.78,27.47 C14.02,29.55 14.9,30.37 14.57,31.45 C14.56,31.51 14.53,31.57 14.5,31.64 C14.46,31.74 14.4,31.86 14.32,31.97 L18,29.22 L18,29.29 L18.29,29 L20.92,26.37 C21.73,25.55 22.96,25.39 23.94,25.89 C24.18,26.01 24.4,26.17 24.6,26.37 C25.11,26.88 25.36,27.54 25.36,28.21 Z" id="Stroke-2"></path>
                    <polygon id="Stroke-4" points="12.1 42.82 8.92 46 0 37.07 3.18 33.89 5.43 36.14 10.03 40.75"></polygon>
                    <polygon id="Stroke-6" points="46 10 36 10 36 0"></polygon>
                    <path d="M46,10 L46,38 L18,38 L18,37.7 L18.79,36.91 C19.16,36.54 19.41,36.09 19.53,35.62 C19.63,35.22 19.81,34.84 20.1,34.55 L24.6,30.05 C25.11,29.54 25.36,28.88 25.36,28.21 C25.36,27.54 25.11,26.88 24.6,26.37 C24.4,26.17 24.18,26.01 23.94,25.89 C22.96,25.39 21.73,25.55 20.92,26.37 L18.29,29 L18,29.29 L18,0 L36,0 L36,10 L46,10 Z" id="Stroke-8"></path>
                    <polygon id="Stroke-10" points="46 10 36 10 36 0"></polygon>
                    <path d="M21.9954,14.998 L41.9954,14.998" id="Stroke-12"></path>
                    <path d="M21.9954,19.998 L41.9954,19.998" id="Stroke-14"></path>
                    <path d="M28.9954,24.998 L41.9954,24.998" id="Stroke-16"></path>
                </g>
            </g>
        </g>
    </g>
</svg>