<?xml version="1.0" encoding="UTF-8"?>
<svg width="39px" height="49px" viewBox="0 0 39 49" version="1.1" xmlns="http://www.w3.org/2000/svg" xmlns:xlink="http://www.w3.org/1999/xlink">
    <!-- Generator: sketchtool 52.6 (67491) - http://www.bohemiancoding.com/sketch -->
    <title>FE68C2BC-EC89-43A3-89C5-1737C0BF49FD</title>
    <desc>Created with sketchtool.</desc>
    <g id="Symbols" stroke="none" stroke-width="1" fill="none" fill-rule="evenodd" stroke-linecap="round" stroke-linejoin="round">
        <g id="icon/watch" transform="translate(1.000000, 1.000000)" stroke="#FB503B" stroke-width="2">
            <g id="wwatch">
                <path d="M21.8734,23.0049 C21.8734,23.6229 21.6724,24.2129 21.3414,24.6869 C20.8094,25.4059 19.9614,25.8809 18.9974,25.8809 C17.4164,25.8809 16.1224,24.6009 16.1224,23.0049 C16.1224,21.4229 17.4164,20.1289 18.9974,20.1289 C20.5934,20.1289 21.8734,21.4229 21.8734,23.0049 Z" id="Stroke-1"></path>
                <path d="M21.8734,23.0049 C21.8734,23.6229 21.6724,24.2129 21.3414,24.6869 C20.8094,25.4059 19.9614,25.8809 18.9974,25.8809 C17.4164,25.8809 16.1224,24.6009 16.1224,23.0049 C16.1224,21.4229 17.4164,20.1289 18.9974,20.1289 C20.5934,20.1289 21.8734,21.4229 21.8734,23.0049 Z" id="Stroke-3"></path>
                <path d="M19.0003,20.135 L19.0003,12.947" id="Stroke-5"></path>
                <path d="M21.3385,24.6815 L27.9895,29.4325" id="Stroke-7"></path>
                <path d="M21.3414,24.6871 C20.8094,25.4061 19.9614,25.8801 18.9974,25.8801 C17.4164,25.8801 16.1224,24.6011 16.1224,23.0051 C16.1224,21.4231 17.4164,20.1291 18.9974,20.1291 C20.5934,20.1291 21.8734,21.4231 21.8734,23.0051 C21.8734,23.6231 21.6724,24.2131 21.3414,24.6871 Z M29.0624,9.0011 C26.2304,6.9591 22.7654,5.7511 18.9974,5.7511 C15.2304,5.7511 11.7654,6.9591 8.9334,9.0011 C4.5764,12.1211 1.7444,17.2391 1.7444,23.0051 C1.7444,28.7851 4.5764,33.8891 8.9334,37.0231 C11.7654,39.0651 15.2304,40.2581 18.9974,40.2581 C22.7654,40.2581 26.2304,39.0651 29.0624,37.0231 C33.4194,33.8891 36.2514,28.7851 36.2514,23.0051 C36.2514,17.2391 33.4194,12.1211 29.0624,9.0011 Z" id="Stroke-9"></path>
                <path d="M21.8734,23.0049 C21.8734,23.6229 21.6724,24.2129 21.3414,24.6869 C20.8094,25.4059 19.9614,25.8809 18.9974,25.8809 C17.4164,25.8809 16.1224,24.6009 16.1224,23.0049 C16.1224,21.4229 17.4164,20.1289 18.9974,20.1289 C20.5934,20.1289 21.8734,21.4229 21.8734,23.0049 Z" id="Stroke-11"></path>
                <path d="M29.0625,-7.10542736e-15 L29.0625,9.001 C26.2305,6.959 22.7645,5.751 18.9975,5.751 C15.2305,5.751 11.7655,6.959 8.9335,9.001 L8.9335,-7.10542736e-15 L29.0625,-7.10542736e-15 Z" id="Stroke-13"></path>
                <path d="M29.0625,37.0235 L29.0625,46.0095 L8.9335,46.0095 L8.9335,37.0235 C11.7655,39.0655 15.2305,40.2585 18.9975,40.2585 C22.7645,40.2585 26.2305,39.0655 29.0625,37.0235 Z" id="Stroke-15"></path>
                <path d="M0,23.0098 L1.744,23.0048" id="Stroke-17"></path>
            </g>
        </g>
    </g>
</svg>