<?xml version="1.0" encoding="UTF-8"?>
<svg width="56px" height="54px" viewBox="0 0 56 54" version="1.1" xmlns="http://www.w3.org/2000/svg" xmlns:xlink="http://www.w3.org/1999/xlink">
    <!-- Generator: sketchtool 52.6 (67491) - http://www.bohemiancoding.com/sketch -->
    <title>929FFBE8-6D73-41F2-B7CE-A0CB4A83CA1A</title>
    <desc>Created with sketchtool.</desc>
    <g id="Page-1" stroke="none" stroke-width="1" fill="none" fill-rule="evenodd">
        <g id="Laraguys" transform="translate(-512.000000, -4399.000000)">
            <g id="Group-18" transform="translate(506.000000, 4399.000000)">
                <g id="xd" transform="translate(6.000000, 0.000000)">
                    <path d="M0,0 L0,54 L56,54 L56,0 L0,0 Z M2,3 L53,3 L53,52 L2,52 L2,3 Z" id="Shape" fill="#FF2BC2"></path>
                    <rect id="Rectangle" fill="#2E001E" x="2" y="2" width="52" height="50"></rect>
                    <path d="M41.5922266,22.2091743 C41.236761,22.0422018 40.7865046,21.9706422 40.2177597,21.9706422 C37.2318487,21.9706422 35.2412413,24.2844037 35.2412413,28.1247706 C35.2412413,32.5137615 37.2792441,34.2788991 39.9333872,34.2788991 C40.5021321,34.2788991 41.1182725,34.2073394 41.5685289,34.0165138 L41.5685289,22.2091743 L41.5922266,22.2091743 Z M30.9756542,28.3155963 C30.9756542,22.7577982 34.5303102,18.4165138 40.3599459,18.4165138 C40.8575977,18.4165138 41.1182725,18.4165138 41.5922266,18.4642202 L41.5922266,12.2623853 C41.5922266,12.1192661 41.7107152,12.0238532 41.8292037,12.0238532 L45.6445344,12.0238532 C45.8341161,12.0238532 45.8815115,12.0954128 45.8815115,12.2146789 L45.8815115,34.0165138 C45.8815115,34.6605505 45.8815115,35.4715596 46,36.3541284 C46,36.5211009 46,36.5449541 45.8578138,36.6165138 C43.8672064,37.5706422 41.7818083,38 39.791201,38 C34.6487987,38 30.9756542,34.8036697 30.9756542,28.3155963 Z M22.8947364,24.4513761 L29.5300941,37.4036697 C29.6485827,37.5944954 29.5774895,37.7853211 29.3879079,37.7853211 L25.264507,37.7853211 C25.0038322,37.7853211 24.8853437,37.7137615 24.7668552,37.4752294 C23.250202,34.3266055 21.7098511,31.0587156 20.1221047,27.6715596 L20.0747093,27.6715596 C18.652847,30.8678899 17.0887983,34.3504587 15.5721451,37.4990826 C15.4536566,37.6899083 15.3351681,37.7614679 15.1455864,37.7614679 L11.2117672,37.7614679 C10.9747901,37.7614679 10.9510924,37.5706422 11.0695809,37.4275229 L17.5627525,24.8568807 L11.2828603,12.3577982 C11.1406741,12.1669725 11.2828603,12 11.4487442,12 L15.5247497,12 C15.7617268,12 15.8802153,12.0477064 15.9513084,12.2623853 C17.4442639,15.4348624 18.9609171,18.559633 20.3827795,21.7559633 L20.4301749,21.7559633 C21.8046419,18.6073394 23.3212951,15.4348624 24.7668552,12.3100917 C24.8853437,12.1192661 24.9564368,12 25.1934139,12 L29.0087446,12 C29.1983262,12 29.2694194,12.1431193 29.1509308,12.3577982 L22.8947364,24.4513761 Z" id="Shape" fill="#FF2BC2" fill-rule="nonzero"></path>
                </g>
            </g>
        </g>
    </g>
</svg>