<?xml version="1.0" standalone="no"?>
<!DOCTYPE svg PUBLIC "-//W3C//DTD SVG 20010904//EN"
 "http://www.w3.org/TR/2001/REC-SVG-20010904/DTD/svg10.dtd">
<svg version="1.0" xmlns="http://www.w3.org/2000/svg"
 width="260.000000pt" height="260.000000pt" viewBox="0 0 260.000000 260.000000"
 preserveAspectRatio="xMidYMid meet">
<metadata>
Created by potrace 1.11, written by Peter Selinger 2001-2013
</metadata>
<g transform="translate(0.000000,260.000000) scale(0.100000,-0.100000)"
fill="#000000" stroke="none">
<path d="M20 1908 c-31 -33 -25 -62 27 -125 90 -112 128 -158 133 -163 3 -3
57 -68 120 -145 63 -77 122 -149 132 -160 9 -11 96 -117 193 -235 245 -299
289 -346 348 -378 46 -24 63 -27 142 -27 131 1 180 31 311 191 175 213 197
240 218 264 12 14 51 61 86 105 36 44 75 92 88 106 12 14 28 33 35 43 11 15
38 16 270 14 l257 -3 -107 -131 c-60 -72 -124 -150 -143 -174 -19 -24 -50 -62
-69 -84 -18 -23 -50 -61 -70 -85 -67 -82 -99 -105 -159 -114 -57 -9 -102 11
-159 71 l-54 56 -35 -40 c-59 -66 -59 -66 -7 -118 65 -67 132 -98 218 -104
131 -8 206 38 346 213 35 44 67 82 70 85 3 3 54 65 115 139 60 74 146 179 192
235 46 57 82 110 82 122 0 12 -9 32 -19 45 l-19 24 -368 0 c-209 1 -378 -3
-391 -8 -12 -5 -45 -39 -75 -76 -29 -36 -55 -68 -58 -71 -3 -3 -23 -27 -45
-55 -22 -27 -44 -55 -50 -61 -10 -11 -24 -28 -164 -199 -46 -55 -99 -120 -119
-145 -73 -88 -111 -113 -177 -113 -62 -1 -108 28 -172 106 -32 40 -60 74 -63
77 -3 3 -59 70 -125 150 -66 80 -122 147 -125 150 -3 3 -32 39 -65 80 -32 41
-62 77 -65 80 -3 3 -35 41 -70 85 -35 44 -67 82 -70 85 -3 3 -24 27 -45 55
-22 27 -48 59 -58 70 -49 53 -57 51 221 51 141 0 260 -4 263 -8 3 -5 21 -27
41 -51 70 -82 391 -473 452 -549 33 -42 66 -77 71 -77 18 -1 87 97 79 111 -8
12 -345 425 -408 499 -17 20 -47 56 -66 80 -19 24 -52 63 -74 86 l-39 43 -378
0 c-376 0 -378 0 -399 -22z"/>
</g>
</svg>
